<svg width="465" height="57" viewBox="0 0 465 57" fill="none" xmlns="http://www.w3.org/2000/svg">
<path fill-rule="evenodd" clip-rule="evenodd" d="M80.1539 15.775L152.814 0.828247L225.474 15.775L180.452 29.3946L116.162 20.3781L101.956 22.3704L80.1539 15.775ZM168.722 42.7352L116.162 47.7477L0 36.6695L101.956 22.3704L152.814 37.7555L180.452 29.3946L194.406 31.3516L161.611 41.2725L168.722 42.7352ZM232.324 36.6695L194.406 31.3516L234.271 19.292L272.902 30.9785L232.324 36.6695ZM298.587 42.9889L234.271 56.2192L168.722 42.7352L232.324 36.6695L298.587 42.9889ZM363.126 22.4313L464.648 36.6695L348.486 47.7477L298.587 42.9889L306.931 41.2725L272.902 30.9785L284.63 29.3337L312.47 37.7555L363.126 22.4313ZM363.126 22.4313L348.486 20.3781L284.63 29.3337L239.81 15.775L312.47 0.828247L385.13 15.775L363.126 22.4313Z" fill="#AD2C3F" fill-opacity="0.2"/>
</svg>
