<svg width="28" height="32" viewBox="0 0 28 32" fill="none" xmlns="http://www.w3.org/2000/svg">
<path d="M13.3851 0.00952148C13.3851 0.16507 13.1494 1.21264 13.0541 1.4793C12.703 2.47608 11.9606 3.42524 10.8371 4.31726C10.4308 4.64423 9.64334 5.14579 8.14862 6.04734C5.38992 7.7044 3.75978 9.19005 2.89706 10.8249C2.48577 11.6058 2.35034 12.155 2.35034 13.0248C2.35034 15.0914 3.27325 16.8849 5.01875 18.2055C5.95671 18.9166 7.05016 19.4531 8.67027 19.9991C10.2151 20.5197 11.0277 20.8625 11.7249 21.2847C12.2215 21.5831 12.5224 21.8434 12.7531 22.1641C13.039 22.5577 13.0089 22.5672 12.6277 22.2053C12.1864 21.7895 11.5042 21.3419 10.9675 21.1133C10.2302 20.8054 8.8709 20.3895 7.41631 20.0308C5.49024 19.5546 4.19616 18.9769 3.13782 18.1166C1.97917 17.1802 1.19169 15.9453 0.770359 14.4057C0.549663 13.5898 0.449346 12.7899 0.369093 11.1265C0.354046 10.8122 0.328967 10.3805 0.313919 10.1646L0.283824 9.77415L0.148397 9.78367L0.0179863 9.7932L0.00293883 13.6343C-0.0121086 17.3548 0.0280179 19.1071 0.148397 19.7769C0.429283 21.3895 1.01112 22.5418 2.03434 23.5227C2.54094 24.0021 3.50899 24.6243 4.23127 24.9258C5.43507 25.4306 6.86959 25.7607 8.44456 25.9036C8.66525 25.9226 9.00131 25.9544 9.19191 25.9734C10.8923 26.1385 12.3569 27.0051 13.0039 28.2368C13.2397 28.6812 13.4955 29.7732 13.661 31.0144C13.8014 32.0811 13.7814 31.9985 13.9118 31.9985H14.0272L14.0673 31.3065C14.1325 30.1764 14.1174 26.0274 14.0472 25.4433C13.7914 23.3545 13.1444 22.0879 11.8704 21.1419C11.4089 20.8022 11.0578 20.6181 9.72359 20.0149C8.13859 19.2975 7.67212 19.0531 7.23574 18.7229C6.26268 17.9833 5.87646 17.4246 5.8263 16.6786C5.76611 15.8215 6.26268 15.012 7.37619 14.1739C7.91789 13.7613 8.14862 13.6216 9.04645 13.1423C9.48785 12.9073 10.0396 12.5994 10.2703 12.4597C11.0678 11.9772 11.8804 11.3011 12.3569 10.7201L12.9143 10.0571H15.7842L15.7927 30.6286L16.5017 30.1714V10.0571H27.2637L27.9812 9.6H16.5017V1.96923L15.7927 2.40405L15.7842 9.6C14.2818 9.6 13.1132 9.6 13.2731 9.6C13.4536 9.29843 13.5557 8.36469 13.5557 8.36469C13.5557 8.36469 13.7413 7.3203 13.7061 3.62523L13.671 0H13.5256C13.4503 0 13.3851 0.00317192 13.3851 0.00952148Z" fill="#AD2C3F"/>
<path d="M15.781 2.40701L16.5078 1.96924V9.59992H28L27.3369 10.0922L16.5078 10.0558V30.1774L15.781 30.6338V2.40701Z" fill="black"/>
<path d="M4.91555 10.0923L4.11609 9.59992H15.781V10.0558L4.91555 10.0923Z" fill="black"/>
</svg>
