<svg width="353" height="86" viewBox="0 0 353 86" fill="none" xmlns="http://www.w3.org/2000/svg">
<path d="M73.838 42V41.16L74.638 40.92C75.198 40.7333 75.558 40.4933 75.718 40.2C75.878 39.88 75.958 39.44 75.958 38.88V18.64C75.958 18.1067 75.878 17.6933 75.718 17.4C75.558 17.08 75.2113 16.8267 74.678 16.64L73.838 16.4V15.56H83.758V16.4L82.998 16.64C82.4913 16.8267 82.1446 17.08 81.958 17.4C81.798 17.72 81.718 18.16 81.718 18.72V40.8H87.598C88.5046 40.8 89.1846 40.5733 89.638 40.12C90.0913 39.6667 90.518 39.0133 90.918 38.16L92.398 34.84H93.518L93.118 42H73.838ZM95.2555 42V41.328L95.8955 41.136C96.3222 40.9867 96.5995 40.7947 96.7275 40.56C96.8769 40.304 96.9515 39.952 96.9515 39.504V23.344C96.9515 22.896 96.8769 22.5547 96.7275 22.32C96.5995 22.064 96.3222 21.8613 95.8955 21.712L95.2555 21.52V20.848H103.256V21.52L102.616 21.712C102.21 21.8613 101.933 22.064 101.784 22.32C101.634 22.5547 101.56 22.896 101.56 23.344V39.504C101.56 39.952 101.634 40.304 101.784 40.56C101.933 40.7947 102.21 40.9867 102.616 41.136L103.256 41.328V42H95.2555ZM105.108 42V41.328L106.036 41.072C106.442 40.9653 106.719 40.7627 106.868 40.464C107.039 40.1653 107.124 39.8027 107.124 39.376V23.888C106.932 23.4827 106.762 23.184 106.612 22.992C106.484 22.7787 106.346 22.5973 106.196 22.448C106.047 22.2987 105.844 22.128 105.588 21.936L105.012 21.52V20.848H110.484L121.108 35.376V23.504C121.108 23.0773 121.034 22.704 120.884 22.384C120.756 22.064 120.479 21.8507 120.052 21.744L119.092 21.52V20.848H123.86V21.52L123.06 21.744C122.655 21.872 122.399 22.096 122.292 22.416C122.207 22.7147 122.164 23.0773 122.164 23.504V42.128H120.372L108.18 25.36V39.344C108.18 39.792 108.244 40.1653 108.372 40.464C108.5 40.7627 108.767 40.9653 109.172 41.072L110.036 41.328V42H105.108ZM136.011 42.544C133.835 42.544 131.926 42.0853 130.283 41.168C128.641 40.2507 127.35 38.96 126.411 37.296C125.494 35.6107 125.035 33.6373 125.035 31.376C125.035 29.1573 125.483 27.216 126.379 25.552C127.297 23.888 128.619 22.5973 130.347 21.68C132.075 20.7413 134.145 20.272 136.555 20.272C137.707 20.272 138.774 20.4 139.755 20.656C140.758 20.912 141.697 21.2853 142.571 21.776L142.699 26.352H141.835L140.235 23.12C139.979 22.608 139.734 22.2347 139.499 22C139.265 21.7653 138.955 21.5947 138.571 21.488C138.294 21.3813 138.027 21.3173 137.771 21.296C137.515 21.2533 137.185 21.232 136.779 21.232C135.435 21.232 134.251 21.584 133.227 22.288C132.203 22.9707 131.403 24.0587 130.827 25.552C130.273 27.0453 129.995 28.9867 129.995 31.376C129.995 34.9813 130.582 37.5947 131.755 39.216C132.95 40.816 134.539 41.616 136.523 41.616C136.993 41.616 137.398 41.552 137.739 41.424C138.145 41.36 138.422 41.2 138.571 40.944C138.721 40.6667 138.795 40.3253 138.795 39.92C138.795 39.0453 138.785 38.096 138.763 37.072C138.763 36.0267 138.763 35.0773 138.763 34.224C138.763 33.392 138.326 32.88 137.451 32.688L136.011 32.368V31.696H144.843V32.368L144.459 32.464C144.054 32.592 143.745 32.784 143.531 33.04C143.318 33.2747 143.211 33.6053 143.211 34.032C143.211 34.8853 143.201 35.76 143.179 36.656C143.179 37.5307 143.179 38.416 143.179 39.312V40.688C142.07 41.2853 140.939 41.744 139.787 42.064C138.657 42.384 137.398 42.544 136.011 42.544ZM144.744 42V41.328L145.608 41.072C146.056 40.944 146.397 40.752 146.632 40.496C146.888 40.24 147.09 39.888 147.24 39.44L153.704 20.752H156.36L162.792 39.568C162.962 40.0373 163.154 40.4 163.368 40.656C163.581 40.8907 163.922 41.0827 164.392 41.232L164.872 41.36V42H156.744V41.36L157.288 41.2C157.757 41.0507 158.034 40.816 158.12 40.496C158.226 40.176 158.205 39.7813 158.056 39.312L156.712 35.184H149.64L148.264 39.248C148.114 39.7173 148.072 40.1013 148.136 40.4C148.2 40.6987 148.466 40.9333 148.936 41.104L149.64 41.328V42H144.744ZM149.96 34.256H156.424L153.288 24.624L149.96 34.256ZM166.265 42V41.328L167.193 41.072C167.598 40.9653 167.875 40.7627 168.025 40.464C168.195 40.1653 168.281 39.8027 168.281 39.376V23.888C168.089 23.4827 167.918 23.184 167.769 22.992C167.641 22.7787 167.502 22.5973 167.353 22.448C167.203 22.2987 167.001 22.128 166.745 21.936L166.169 21.52V20.848H171.641L182.265 35.376V23.504C182.265 23.0773 182.19 22.704 182.041 22.384C181.913 22.064 181.635 21.8507 181.209 21.744L180.249 21.52V20.848H185.017V21.52L184.217 21.744C183.811 21.872 183.555 22.096 183.449 22.416C183.363 22.7147 183.321 23.0773 183.321 23.504V42.128H181.529L169.337 25.36V39.344C169.337 39.792 169.401 40.1653 169.529 40.464C169.657 40.7627 169.923 40.9653 170.329 41.072L171.193 41.328V42H166.265ZM196.24 42.544C194.938 42.544 193.69 42.3093 192.496 41.84C191.301 41.3707 190.224 40.6773 189.264 39.76C188.325 38.8213 187.578 37.6587 187.024 36.272C186.469 34.8853 186.192 33.264 186.192 31.408C186.192 29.5947 186.469 27.9947 187.024 26.608C187.578 25.2213 188.325 24.0587 189.264 23.12C190.224 22.1813 191.301 21.4773 192.496 21.008C193.712 20.5173 194.96 20.272 196.24 20.272C197.52 20.272 198.757 20.5067 199.952 20.976C201.168 21.4453 202.245 22.1493 203.184 23.088C204.122 24.0053 204.869 25.1573 205.424 26.544C205.978 27.9307 206.256 29.552 206.256 31.408C206.256 33.2213 205.978 34.8213 205.424 36.208C204.869 37.5947 204.122 38.7573 203.184 39.696C202.245 40.6347 201.178 41.3493 199.984 41.84C198.789 42.3093 197.541 42.544 196.24 42.544ZM196.24 41.584C197.456 41.584 198.437 41.2747 199.184 40.656C199.93 40.016 200.474 38.9493 200.816 37.456C201.157 35.9627 201.328 33.9467 201.328 31.408C201.328 28.8693 201.157 26.864 200.816 25.392C200.474 23.8987 199.93 22.8427 199.184 22.224C198.437 21.584 197.456 21.264 196.24 21.264C195.045 21.264 194.064 21.584 193.296 22.224C192.549 22.8427 192.005 23.8987 191.664 25.392C191.322 26.864 191.152 28.8693 191.152 31.408C191.152 33.9467 191.322 35.9627 191.664 37.456C192.005 38.9493 192.549 40.016 193.296 40.656C194.064 41.2747 195.045 41.584 196.24 41.584ZM207.099 42V41.328L207.771 41.136C208.198 41.008 208.465 40.8267 208.571 40.592C208.699 40.336 208.763 39.984 208.763 39.536C208.785 38.2987 208.795 37.0613 208.795 35.824C208.795 34.5867 208.795 33.3387 208.795 32.08V30.768C208.795 29.5307 208.795 28.2933 208.795 27.056C208.795 25.8187 208.785 24.5813 208.763 23.344C208.763 22.896 208.71 22.5547 208.603 22.32C208.497 22.064 208.23 21.872 207.803 21.744L207.099 21.52V20.848H216.059C218.555 20.848 220.475 21.328 221.819 22.288C223.185 23.2267 223.867 24.5493 223.867 26.256C223.867 27.1947 223.494 28.144 222.747 29.104C222.022 30.064 220.902 30.8 219.387 31.312L223.739 39.792C224.102 40.496 224.667 40.976 225.435 41.232L226.043 41.36V42H220.379L215.611 32.016H213.307C213.307 33.5307 213.307 34.896 213.307 36.112C213.307 37.328 213.318 38.4693 213.339 39.536C213.339 39.9627 213.403 40.304 213.531 40.56C213.681 40.816 213.958 40.9973 214.363 41.104L215.131 41.328V42H207.099ZM213.307 31.088H215.035C216.55 31.088 217.659 30.704 218.363 29.936C219.067 29.168 219.419 27.9947 219.419 26.416C219.419 24.8373 219.078 23.6747 218.395 22.928C217.734 22.16 216.657 21.776 215.163 21.776H213.339C213.339 22.608 213.329 23.4613 213.307 24.336C213.307 25.1893 213.307 26.16 213.307 27.248C213.307 28.3147 213.307 29.5947 213.307 31.088ZM227.099 42V41.328L227.739 41.104C228.123 40.9973 228.39 40.816 228.539 40.56C228.689 40.2827 228.774 39.9093 228.795 39.44V23.344C228.774 22.896 228.699 22.5547 228.571 22.32C228.443 22.064 228.177 21.872 227.771 21.744L227.099 21.52V20.848H242.331L242.555 25.968H241.659L240.379 23.088C240.209 22.6827 240.017 22.3733 239.803 22.16C239.59 21.9253 239.27 21.808 238.843 21.808H233.403C233.382 23.1307 233.371 24.496 233.371 25.904C233.371 27.2907 233.371 28.8587 233.371 30.608H236.539C236.966 30.608 237.286 30.5013 237.499 30.288C237.734 30.0533 237.947 29.744 238.139 29.36L238.683 28.144H239.387V34.064H238.683L238.107 32.848C237.937 32.464 237.745 32.1547 237.531 31.92C237.318 31.6853 236.998 31.568 236.571 31.568H233.371C233.371 33.104 233.371 34.4267 233.371 35.536C233.371 36.6453 233.371 37.6373 233.371 38.512C233.393 39.3653 233.403 40.208 233.403 41.04H239.547C239.974 41.04 240.305 40.9333 240.539 40.72C240.774 40.4853 240.966 40.1653 241.115 39.76L242.299 36.88H243.195L242.971 42H227.099Z" fill="#FFF8EF"/>
<path d="M34.3613 56.12L34.2113 56.03C34.0113 55.83 33.7213 55.65 33.3413 55.49C32.9613 55.33 32.7013 55.25 32.5613 55.25L32.1413 55.31C31.8213 55.31 31.6013 55.47 31.4813 55.79C31.2813 56.11 31.1813 61.53 31.1813 72.05C31.1813 72.81 31.4813 73.51 32.0813 74.15C32.6013 74.69 33.2713 75.11 34.0913 75.41H27.4313V73.88C26.4713 75.2 25.3613 76.25 24.1013 77.03C22.6813 77.91 21.2813 78.35 19.9013 78.35C18.5213 78.35 17.3613 78.17 16.4213 77.81C15.2213 77.35 14.3713 76.66 13.8713 75.74C13.3313 74.8 12.9413 73.79 12.7013 72.71C12.4613 71.59 12.3413 70.27 12.3413 68.75C12.3413 68.01 12.4213 67.22 12.5813 66.38C12.7013 65.72 12.9513 64.88 13.3313 63.86C13.9113 62.22 14.8113 60.7 16.0313 59.3C16.6913 58.54 17.3113 57.87 17.8913 57.29C18.4713 56.73 19.1813 56.1 20.0213 55.4L14.7413 55.37C12.4013 55.37 10.5813 55.93 9.28129 57.05C7.90129 58.27 7.21129 59.76 7.21129 61.52C7.21129 63.28 7.50129 64.73 8.08129 65.87C8.68129 66.97 9.52129 67.79 10.6013 68.33C9.08129 68.15 7.84129 67.49 6.88129 66.35C5.92129 65.17 5.44129 63.82 5.44129 62.3V61.85C5.44129 61.81 5.45129 61.76 5.47129 61.7C5.47129 61.62 5.48129 61.57 5.50129 61.55C5.50129 61.33 5.55129 61.05 5.65129 60.71L6.19129 59.24L6.76129 58.34L7.57129 57.41L8.41129 56.66L9.37129 56C10.2513 55.4 11.2613 55 12.4013 54.8C13.6613 54.58 17.2013 54.47 23.0213 54.47L21.1313 56.6C20.6713 57.12 20.1813 57.75 19.6613 58.49C19.1213 59.23 18.6613 59.96 18.2813 60.68C17.8813 61.38 17.5213 62.17 17.2013 63.05C16.5813 64.61 16.2713 66.18 16.2713 67.76C16.2713 69.28 16.3613 70.46 16.5413 71.3C16.8413 72.68 17.3313 73.58 18.0113 74C18.6113 74.34 19.2713 74.6 19.9913 74.78C20.7513 74.96 21.5813 75.05 22.4813 75.05C23.4213 75.05 24.4513 74.7 25.5713 74C26.8113 73.18 27.4313 67.26 27.4313 56.24C27.4313 55.84 27.3313 55.51 27.1313 55.25C26.9313 55.01 26.5913 54.79 26.1113 54.59L25.9013 54.5L31.6913 54.47C32.1713 54.47 32.6613 54.63 33.1613 54.95C33.7013 55.31 34.1013 55.7 34.3613 56.12ZM46.1475 71.81C45.8075 72.47 45.3775 73 44.8575 73.4C44.6375 73.58 44.3375 73.77 43.9575 73.97L43.9275 74C43.6275 74.12 43.3275 74.18 43.0275 74.18C42.4275 74.18 41.9775 74 41.6775 73.64C41.3775 73.3 41.2275 71.1 41.2275 67.04V65.42C41.2275 65.02 41.1675 64.67 41.0475 64.37C40.8875 64.09 40.5975 63.95 40.1775 63.95C39.7175 63.95 39.1275 64.4 38.4075 65.3L37.8375 66.14L37.0275 67.37V70.37V71.3L36.9675 72.62L36.9075 72.74C36.5875 73.18 36.1875 73.51 35.7075 73.73C35.3675 73.91 34.8775 74.06 34.2375 74.18L34.2675 70.19V67.85V65.81C34.2675 64.55 34.2275 63.81 34.1475 63.59C34.0675 63.53 33.9575 63.49 33.8175 63.47C33.6175 63.51 33.3475 63.61 33.0075 63.77L32.1975 64.28C32.7975 63.52 33.3275 62.91 33.7875 62.45C34.6675 61.61 35.2875 61.19 35.6475 61.19C36.0675 61.19 36.3775 61.32 36.5775 61.58C36.6775 61.74 36.7775 62.06 36.8775 62.54L36.9975 64.13L37.0275 66.05L38.3775 64.13L39.2175 63.02C40.3175 61.8 41.3075 61.19 42.1875 61.19C43.0675 61.19 43.6275 61.58 43.8675 62.36C44.0075 62.72 44.0775 63.48 44.0775 64.64L44.0475 68.48V70.4V72.14L44.1675 72.62C44.2275 72.74 44.3575 72.8 44.5575 72.8C44.7575 72.8 45.0375 72.68 45.3975 72.44L46.1475 71.81ZM53.2962 56.54C53.2962 57.1 53.0262 57.61 52.4862 58.07C51.9062 58.53 51.3762 58.76 50.8962 58.76C50.3362 58.76 49.9662 58.49 49.7862 57.95C49.6062 57.43 49.5162 56.95 49.5162 56.51C49.5162 55.17 49.9762 54.5 50.8962 54.5C51.8762 54.5 52.5062 54.7 52.7862 55.1C53.1262 55.5 53.2962 55.98 53.2962 56.54ZM54.9162 71.84C54.4162 72.62 54.0062 73.17 53.6862 73.49C53.1262 73.95 52.5462 74.18 51.9462 74.18C51.3262 74.18 50.8462 73.95 50.5062 73.49C50.1862 73.05 50.0262 69.59 50.0262 63.11L49.9362 62.75C49.8162 62.63 49.6762 62.57 49.5162 62.57C49.3362 62.57 49.0562 62.69 48.6762 62.93L47.8662 63.59C47.9062 63.37 48.1362 63.03 48.5562 62.57L49.5462 61.67C49.7862 61.49 50.0362 61.35 50.2962 61.25L50.8062 61.07L50.9262 61.04H51.4062C51.6262 61.04 51.9062 61.21 52.2462 61.55C52.5662 61.89 52.7362 62.22 52.7562 62.54V63.14L52.8162 63.47V71.87C52.8562 72.15 52.9062 72.35 52.9662 72.47C53.0862 72.65 53.2562 72.74 53.4762 72.74C53.7562 72.7 54.0662 72.54 54.4062 72.26L54.9162 71.84ZM63.8504 70.55C63.3104 71.55 62.7304 72.34 62.1104 72.92C61.2104 73.76 60.3904 74.18 59.6504 74.18C58.8704 74.18 58.3704 73.77 58.1504 72.95C58.0304 72.53 57.9704 69.02 57.9704 62.42L56.2304 62.45L56.2904 62.09L56.4404 61.82C56.5204 61.7 56.8404 61.45 57.4004 61.07L58.5104 60.26C58.9304 59.88 59.3604 59.29 59.8004 58.49L60.2504 57.56L60.7304 56.45V61.13L63.1904 61.16C62.9904 61.5 62.7304 61.78 62.4104 62L61.8704 62.27C61.6304 62.35 61.4404 62.4 61.3004 62.42H61.0604L60.7304 62.45V71.51C60.7304 71.67 60.7604 71.83 60.8204 71.99C60.9404 72.11 61.1204 72.17 61.3604 72.17C61.6004 72.17 62.0204 71.96 62.6204 71.54C62.8404 71.44 63.2504 71.11 63.8504 70.55ZM76.1431 70.49C75.3631 71.65 74.4931 72.55 73.5331 73.19C72.5931 73.81 71.4231 74.12 70.0231 74.12C68.5631 74.12 67.4131 73.6 66.5731 72.56C65.7331 71.5 65.3131 70.23 65.3131 68.75C65.3131 66.67 65.9031 64.89 67.0831 63.41C68.3431 61.85 69.6931 61.07 71.1331 61.07C72.5331 61.07 73.5931 61.28 74.3131 61.7C74.7931 61.96 75.3931 62.47 76.1131 63.23L68.8231 70.49C69.1431 71.09 69.6331 71.52 70.2931 71.78C70.7731 71.98 71.3831 72.08 72.1231 72.08C72.5031 72.08 72.8431 72.04 73.1431 71.96C73.5031 71.86 73.8731 71.73 74.2531 71.57C75.0731 71.21 75.7031 70.85 76.1431 70.49ZM72.2431 65C72.2431 64.5 72.1031 64.05 71.8231 63.65C71.5231 63.29 71.0231 63.06 70.3231 62.96C69.5831 62.96 69.0031 63.49 68.5831 64.55C68.4831 64.83 68.3731 65.23 68.2531 65.75C68.1731 66.09 68.1331 66.45 68.1331 66.83C68.1331 67.55 68.1631 68.08 68.2231 68.42C68.2431 68.5 68.2531 68.57 68.2531 68.63C68.2731 68.73 68.2831 68.8 68.2831 68.84C68.2831 68.92 68.3031 69.02 68.3431 69.14C68.3431 69.3 68.4131 69.53 68.5531 69.83L69.9331 68.51L70.5931 67.82L71.4931 66.8C71.7131 66.52 71.9031 66.21 72.0631 65.87C72.1831 65.59 72.2431 65.3 72.2431 65ZM92.405 53.99C92.045 54.69 91.605 55.18 91.085 55.46C90.905 55.56 90.615 55.67 90.215 55.79C89.915 55.87 89.575 55.91 89.195 55.91L88.625 55.97C88.405 56.09 88.295 56.24 88.295 56.42V72.26C88.295 72.52 88.435 72.65 88.715 72.65C89.035 72.61 89.435 72.45 89.915 72.17L90.575 71.81C90.395 72.25 90.055 72.68 89.555 73.1C89.075 73.52 88.615 73.82 88.175 74L87.875 74.06L87.515 74.18C86.555 74 85.945 73.48 85.685 72.62C85.565 72.16 85.505 71.32 85.505 70.1L84.875 70.82L84.035 71.63C83.155 72.43 82.475 73.01 81.995 73.37C81.715 73.55 81.335 73.75 80.855 73.97C80.515 74.11 80.185 74.18 79.865 74.18C79.205 74.18 78.635 73.64 78.155 72.56C77.795 71.62 77.615 70.31 77.615 68.63C77.615 67.75 77.785 66.88 78.125 66.02C78.485 65.2 79.025 64.38 79.745 63.56C80.445 62.76 81.275 62.17 82.235 61.79C83.255 61.39 84.345 61.19 85.505 61.19V59.12C85.505 57.76 85.865 56.6 86.585 55.64C87.425 54.54 89.365 53.99 92.405 53.99ZM85.505 68.72V62C84.105 62 82.915 62.53 81.935 63.59C80.975 64.67 80.495 65.76 80.495 66.86C80.495 67.98 80.585 68.78 80.765 69.26C81.065 69.96 81.525 70.31 82.145 70.31C82.765 70.31 83.395 70.14 84.035 69.8C84.355 69.6 84.845 69.24 85.505 68.72ZM134.525 80.6H131.735C130.315 80.6 129.035 80.35 127.895 79.85C126.735 79.35 125.735 78.59 124.895 77.57C123.135 75.39 121.875 72.9 121.115 70.1C120.755 68.82 120.465 67.39 120.245 65.81C120.045 64.41 119.945 62.89 119.945 61.25L119.405 62.39L119.225 62.84L119.075 63.32L118.415 65.45L117.695 67.79L117.035 70.4L116.675 71.93L116.435 72.83L115.565 71.06L115.025 69.77L113.705 66.26L112.625 63.02L112.205 61.7L111.755 60.41C111.755 63.05 111.315 65.95 110.435 69.11C109.575 72.19 108.415 74.94 106.955 77.36C106.375 78.38 105.725 79.14 105.005 79.64C104.145 80.32 103.135 80.66 101.975 80.66C100.815 80.66 99.8252 80 99.0052 78.68C98.3652 77.7 97.9552 76.44 97.7752 74.9C98.3752 75.62 99.0752 76.16 99.8752 76.52C100.755 76.94 101.645 77.15 102.545 77.15C103.425 77.15 104.275 76.92 105.095 76.46C105.875 76.04 106.555 75.36 107.135 74.42C108.055 72.96 108.855 71.21 109.535 69.17C110.055 67.43 110.445 65.54 110.705 63.5L110.945 61.1L110.975 59.57V58.7C110.975 58.56 110.925 58.14 110.825 57.44V57.35C110.705 56.67 110.435 56.12 110.015 55.7C109.495 55.18 108.415 54.92 106.775 54.92C105.115 54.92 103.555 55.5 102.095 56.66C100.515 57.92 99.7252 59.36 99.7252 60.98C99.7252 62.52 99.8352 63.75 100.055 64.67C100.315 65.53 100.705 66.32 101.225 67.04L102.305 68.36C102.545 68.64 102.685 68.87 102.725 69.05C102.705 69.19 102.565 69.34 102.305 69.5C102.245 69.56 101.805 69.7 100.985 69.92C100.065 69.42 99.3752 68.5 98.9152 67.16C98.4552 65.8 98.2252 64.55 98.2252 63.41C98.2252 61.11 98.8052 59.23 99.9652 57.77C100.965 56.49 102.365 55.55 104.165 54.95C105.945 54.35 107.595 54.05 109.115 54.05C110.495 54.05 111.515 54.19 112.175 54.47C112.755 54.73 113.245 55.17 113.645 55.79C114.145 56.59 114.565 57.45 114.905 58.37C115.105 58.91 115.375 59.82 115.715 61.1L116.165 62.72L116.495 63.77L116.735 64.61L117.215 66.05L117.875 63.8C118.395 62.12 118.925 60.71 119.465 59.57C120.305 57.91 121.225 56.63 122.225 55.73C123.465 54.61 124.635 54.05 125.735 54.05C126.835 54.05 127.665 54.2 128.225 54.5C128.765 54.78 129.205 55.25 129.545 55.91C129.265 55.55 128.825 55.24 128.225 54.98C127.665 54.74 126.945 54.62 126.065 54.62C125.205 54.62 124.365 55.24 123.545 56.48C122.885 57.58 122.555 58.62 122.555 59.6V60.17C122.555 60.23 122.565 60.36 122.585 60.56L122.615 60.95C122.615 61.23 122.625 61.44 122.645 61.58C122.665 61.68 122.685 61.8 122.705 61.94C122.725 62.08 122.745 62.2 122.765 62.3L123.215 64.4C123.435 65.34 123.755 66.41 124.175 67.61C124.575 68.73 125.005 69.74 125.465 70.64C126.005 71.7 126.545 72.68 127.085 73.58C127.385 74.1 127.695 74.56 128.015 74.96C128.315 75.42 128.645 75.87 129.005 76.31C129.745 77.21 130.605 78.06 131.585 78.86C132.505 79.58 133.485 80.16 134.525 80.6ZM139.014 70.49C138.234 71.65 137.364 72.55 136.404 73.19C135.464 73.81 134.294 74.12 132.894 74.12C131.434 74.12 130.284 73.6 129.444 72.56C128.604 71.5 128.184 70.23 128.184 68.75C128.184 66.67 128.774 64.89 129.954 63.41C131.214 61.85 132.564 61.07 134.004 61.07C135.404 61.07 136.464 61.28 137.184 61.7C137.664 61.96 138.264 62.47 138.984 63.23L131.694 70.49C132.014 71.09 132.504 71.52 133.164 71.78C133.644 71.98 134.254 72.08 134.994 72.08C135.374 72.08 135.714 72.04 136.014 71.96C136.374 71.86 136.744 71.73 137.124 71.57C137.944 71.21 138.574 70.85 139.014 70.49ZM135.114 65C135.114 64.5 134.974 64.05 134.694 63.65C134.394 63.29 133.894 63.06 133.194 62.96C132.454 62.96 131.874 63.49 131.454 64.55C131.354 64.83 131.244 65.23 131.124 65.75C131.044 66.09 131.004 66.45 131.004 66.83C131.004 67.55 131.034 68.08 131.094 68.42C131.114 68.5 131.124 68.57 131.124 68.63C131.144 68.73 131.154 68.8 131.154 68.84C131.154 68.92 131.174 69.02 131.214 69.14C131.214 69.3 131.284 69.53 131.424 69.83L132.804 68.51L133.464 67.82L134.364 66.8C134.584 66.52 134.774 66.21 134.934 65.87C135.054 65.59 135.114 65.3 135.114 65ZM148.196 70.55C147.656 71.55 147.076 72.34 146.456 72.92C145.556 73.76 144.736 74.18 143.996 74.18C143.216 74.18 142.716 73.77 142.496 72.95C142.376 72.53 142.316 69.02 142.316 62.42L140.576 62.45L140.636 62.09L140.786 61.82C140.866 61.7 141.186 61.45 141.746 61.07L142.856 60.26C143.276 59.88 143.706 59.29 144.146 58.49L144.596 57.56L145.076 56.45V61.13L147.536 61.16C147.336 61.5 147.076 61.78 146.756 62L146.216 62.27C145.976 62.35 145.786 62.4 145.646 62.42H145.406L145.076 62.45V71.51C145.076 71.67 145.106 71.83 145.166 71.99C145.286 72.11 145.466 72.17 145.706 72.17C145.946 72.17 146.366 71.96 146.966 71.54C147.186 71.44 147.596 71.11 148.196 70.55ZM161.629 71.81C161.349 72.39 160.929 72.92 160.369 73.4C159.809 73.88 159.199 74.12 158.539 74.12C157.919 74.12 157.439 73.91 157.099 73.49C156.839 73.09 156.709 70.4 156.709 65.42C156.709 64.96 156.679 64.66 156.619 64.52C156.479 64.26 156.169 64.13 155.689 64.13C155.229 64.13 154.609 64.61 153.829 65.57C153.049 66.53 152.659 68.4 152.659 71.18C152.659 71.54 152.589 71.9 152.449 72.26C152.309 72.58 152.099 72.91 151.819 73.25C151.539 73.51 151.219 73.72 150.859 73.88C150.679 73.96 150.509 74.02 150.349 74.06C150.149 74.1 149.959 74.12 149.779 74.12V59.18C149.779 57.82 150.159 56.61 150.919 55.55C151.659 54.51 153.589 53.99 156.709 53.99C156.449 54.49 156.139 54.89 155.779 55.19C155.399 55.51 154.939 55.72 154.399 55.82L153.589 55.88L152.929 56C152.749 56.06 152.659 59.42 152.659 66.08L154.009 64.07C154.709 63.15 155.289 62.5 155.749 62.12C156.429 61.56 157.139 61.22 157.879 61.1C158.559 61.1 159.049 61.39 159.349 61.97C159.489 62.31 159.559 65.06 159.559 70.22V72.32C159.599 72.56 159.709 72.68 159.889 72.68C160.189 72.68 160.569 72.52 161.029 72.2L161.629 71.81ZM174.6 67.22C174.6 68.92 173.94 70.51 172.62 71.99C171.28 73.45 169.77 74.18 168.09 74.18C166.39 74.18 165.05 73.54 164.07 72.26C163.23 71.08 162.81 69.64 162.81 67.94C162.81 66.18 163.46 64.59 164.76 63.17C166.06 61.75 167.57 61.04 169.29 61.04C170.99 61.04 172.32 61.66 173.28 62.9C174.16 64.06 174.6 65.5 174.6 67.22ZM171.9 68.96C171.9 68.56 171.88 68.1 171.84 67.58C171.82 67.34 171.76 66.95 171.66 66.41C171.66 66.37 171.65 66.32 171.63 66.26C171.39 65.14 171.04 64.27 170.58 63.65C169.94 62.83 169.17 62.42 168.27 62.42C167.43 62.42 166.72 62.83 166.14 63.65C165.68 64.35 165.45 65.21 165.45 66.23C165.45 66.51 165.47 66.97 165.51 67.61V67.7C165.53 68.18 165.59 68.68 165.69 69.2C165.89 70.18 166.2 70.97 166.62 71.57C167.22 72.37 168 72.77 168.96 72.77C169.92 72.77 170.67 72.35 171.21 71.51C171.67 70.75 171.9 69.9 171.9 68.96ZM191.106 53.99C190.746 54.69 190.306 55.18 189.786 55.46C189.606 55.56 189.316 55.67 188.916 55.79C188.616 55.87 188.276 55.91 187.896 55.91L187.326 55.97C187.106 56.09 186.996 56.24 186.996 56.42V72.26C186.996 72.52 187.136 72.65 187.416 72.65C187.736 72.61 188.136 72.45 188.616 72.17L189.276 71.81C189.096 72.25 188.756 72.68 188.256 73.1C187.776 73.52 187.316 73.82 186.876 74L186.576 74.06L186.216 74.18C185.256 74 184.646 73.48 184.386 72.62C184.266 72.16 184.206 71.32 184.206 70.1L183.576 70.82L182.736 71.63C181.856 72.43 181.176 73.01 180.696 73.37C180.416 73.55 180.036 73.75 179.556 73.97C179.216 74.11 178.886 74.18 178.566 74.18C177.906 74.18 177.336 73.64 176.856 72.56C176.496 71.62 176.316 70.31 176.316 68.63C176.316 67.75 176.486 66.88 176.826 66.02C177.186 65.2 177.726 64.38 178.446 63.56C179.146 62.76 179.976 62.17 180.936 61.79C181.956 61.39 183.046 61.19 184.206 61.19V59.12C184.206 57.76 184.566 56.6 185.286 55.64C186.126 54.54 188.066 53.99 191.106 53.99ZM184.206 68.72V62C182.806 62 181.616 62.53 180.636 63.59C179.676 64.67 179.196 65.76 179.196 66.86C179.196 67.98 179.286 68.78 179.466 69.26C179.766 69.96 180.226 70.31 180.846 70.31C181.466 70.31 182.096 70.14 182.736 69.8C183.056 69.6 183.546 69.24 184.206 68.72ZM196.206 56.54C196.206 57.1 195.936 57.61 195.396 58.07C194.816 58.53 194.286 58.76 193.806 58.76C193.246 58.76 192.876 58.49 192.696 57.95C192.516 57.43 192.426 56.95 192.426 56.51C192.426 55.17 192.886 54.5 193.806 54.5C194.786 54.5 195.416 54.7 195.696 55.1C196.036 55.5 196.206 55.98 196.206 56.54ZM197.826 71.84C197.326 72.62 196.916 73.17 196.596 73.49C196.036 73.95 195.456 74.18 194.856 74.18C194.236 74.18 193.756 73.95 193.416 73.49C193.096 73.05 192.936 69.59 192.936 63.11L192.846 62.75C192.726 62.63 192.586 62.57 192.426 62.57C192.246 62.57 191.966 62.69 191.586 62.93L190.776 63.59C190.816 63.37 191.046 63.03 191.466 62.57L192.456 61.67C192.696 61.49 192.946 61.35 193.206 61.25L193.716 61.07L193.836 61.04H194.316C194.536 61.04 194.816 61.21 195.156 61.55C195.476 61.89 195.646 62.22 195.666 62.54V63.14L195.726 63.47V71.87C195.766 72.15 195.816 72.35 195.876 72.47C195.996 72.65 196.166 72.74 196.386 72.74C196.666 72.7 196.976 72.54 197.316 72.26L197.826 71.84ZM207.601 70.25C207.601 71.65 207.071 72.68 206.011 73.34C205.151 73.82 204.191 74.06 203.131 74.06C202.831 74.06 202.571 74.05 202.351 74.03H201.751L200.791 73.94C200.111 73.76 199.651 73.52 199.411 73.22C199.271 73.04 199.151 72.78 199.051 72.44C198.951 72.04 198.901 71.63 198.901 71.21L198.781 70.04V69.05C199.181 70.17 199.821 71.13 200.701 71.93C201.581 72.73 202.481 73.13 203.401 73.13C204.281 73.13 204.901 72.98 205.261 72.68C205.621 72.34 205.801 71.88 205.801 71.3C205.801 70.72 205.211 70.14 204.031 69.56C203.211 69.18 202.501 68.83 201.901 68.51C201.381 68.25 200.991 68.03 200.731 67.85C199.551 66.95 198.961 65.83 198.961 64.49C198.961 63.15 199.381 62.21 200.221 61.67C200.901 61.23 201.851 61.01 203.071 61.01L203.251 60.98L205.741 61.37L206.461 61.31L206.971 61.13L207.421 60.95C207.261 61.21 207.121 61.47 207.001 61.73L206.761 62.36L206.311 63.86L206.251 64.04C205.631 63.36 205.081 62.9 204.601 62.66C203.961 62.32 203.311 62.15 202.651 62.15C201.991 62.15 201.471 62.25 201.091 62.45C200.691 62.67 200.491 63.04 200.491 63.56C200.491 64.1 201.111 64.63 202.351 65.15C204.151 65.89 205.291 66.43 205.771 66.77C206.991 67.67 207.601 68.83 207.601 70.25ZM216.663 70.55C216.123 71.55 215.543 72.34 214.923 72.92C214.023 73.76 213.203 74.18 212.463 74.18C211.683 74.18 211.183 73.77 210.963 72.95C210.843 72.53 210.783 69.02 210.783 62.42L209.043 62.45L209.103 62.09L209.253 61.82C209.333 61.7 209.653 61.45 210.213 61.07L211.323 60.26C211.743 59.88 212.173 59.29 212.613 58.49L213.063 57.56L213.543 56.45V61.13L216.003 61.16C215.803 61.5 215.543 61.78 215.223 62L214.683 62.27C214.443 62.35 214.253 62.4 214.113 62.42H213.873L213.543 62.45V71.51C213.543 71.67 213.573 71.83 213.633 71.99C213.753 72.11 213.933 72.17 214.173 72.17C214.413 72.17 214.833 71.96 215.433 71.54C215.653 71.44 216.063 71.11 216.663 70.55ZM246.086 73.13C246.086 73.85 245.926 74.56 245.606 75.26C245.346 75.92 244.926 76.57 244.346 77.21C243.886 77.73 243.216 78.11 242.336 78.35L241.196 78.68C240.696 78.78 240.326 78.83 240.086 78.83C239.466 78.91 238.676 78.95 237.716 78.95H237.356H236.906C235.766 78.95 234.426 78.71 232.886 78.23C232.026 77.97 231.306 77.69 230.726 77.39C230.066 77.07 229.436 76.68 228.836 76.22C227.516 75.18 226.576 73.92 226.016 72.44C225.456 70.94 225.176 69.28 225.176 67.46C225.176 65.58 225.436 63.8 225.956 62.12C226.476 60.46 227.306 59.06 228.446 57.92C229.526 56.84 230.696 56.01 231.956 55.43C233.276 54.81 237.126 54.5 243.506 54.5C243.626 54.94 243.726 55.25 243.806 55.43C243.886 55.67 243.956 55.86 244.016 56C244.056 56.14 244.116 56.28 244.196 56.42L245.186 58.19C245.566 58.89 245.836 59.51 245.996 60.05L244.976 59.18L243.296 57.71C242.216 56.89 241.086 56.28 239.906 55.88C238.806 55.5 237.576 55.31 236.216 55.31C234.916 55.31 233.796 55.49 232.856 55.85C231.696 56.29 230.876 56.98 230.396 57.92C230.116 58.38 229.906 58.85 229.766 59.33C229.726 59.43 229.636 59.74 229.496 60.26C229.416 60.48 229.346 60.7 229.286 60.92C229.266 61.02 229.256 61.07 229.256 61.07C228.996 62.13 228.866 63.42 228.866 64.94C228.866 65.62 228.946 66.42 229.106 67.34C229.266 68.24 229.486 69.19 229.766 70.19C230.446 72.45 231.406 74.26 232.646 75.62C234.126 77.22 235.886 78.02 237.926 78.02C239.946 78.02 241.566 77.66 242.786 76.94C244.046 76.2 245.146 74.93 246.086 73.13ZM259.422 71.81C259.142 72.39 258.722 72.92 258.162 73.4C257.602 73.88 256.992 74.12 256.332 74.12C255.712 74.12 255.232 73.91 254.892 73.49C254.632 73.09 254.502 70.4 254.502 65.42C254.502 64.96 254.472 64.66 254.412 64.52C254.272 64.26 253.962 64.13 253.482 64.13C253.022 64.13 252.402 64.61 251.622 65.57C250.842 66.53 250.452 68.4 250.452 71.18C250.452 71.54 250.382 71.9 250.242 72.26C250.102 72.58 249.892 72.91 249.612 73.25C249.332 73.51 249.012 73.72 248.652 73.88C248.472 73.96 248.302 74.02 248.142 74.06C247.942 74.1 247.752 74.12 247.572 74.12V59.18C247.572 57.82 247.952 56.61 248.712 55.55C249.452 54.51 251.382 53.99 254.502 53.99C254.242 54.49 253.932 54.89 253.572 55.19C253.192 55.51 252.732 55.72 252.192 55.82L251.382 55.88L250.722 56C250.542 56.06 250.452 59.42 250.452 66.08L251.802 64.07C252.502 63.15 253.082 62.5 253.542 62.12C254.222 61.56 254.932 61.22 255.672 61.1C256.352 61.1 256.842 61.39 257.142 61.97C257.282 62.31 257.352 65.06 257.352 70.22V72.32C257.392 72.56 257.502 72.68 257.682 72.68C257.982 72.68 258.362 72.52 258.822 72.2L259.422 71.81ZM274.283 70.61L273.113 72.11L272.363 72.92L271.613 73.52C271.053 73.96 270.423 74.18 269.723 74.18C269.083 74.18 268.673 73.8 268.493 73.04L268.433 70.91L267.713 71.66L266.993 72.32L266.093 73.07L265.283 73.61C264.603 73.99 263.933 74.18 263.273 74.18C262.553 74.18 262.043 73.78 261.743 72.98C261.523 72.38 261.413 69.29 261.413 63.71L261.293 62.93C261.233 62.71 261.083 62.6 260.843 62.6C260.643 62.6 260.403 62.66 260.123 62.78L259.433 63.14C259.833 62.52 260.303 62.01 260.843 61.61C261.423 61.21 261.993 61.01 262.553 61.01C263.133 61.01 263.563 61.27 263.843 61.79C264.063 62.23 264.173 64.6 264.173 68.9L264.233 70.67C264.413 71.33 264.693 71.66 265.073 71.66C265.473 71.66 265.803 71.6 266.063 71.48L266.663 71.09C266.943 70.87 267.163 70.68 267.323 70.52L267.803 69.92C268.223 69.34 268.433 67.12 268.433 63.26C268.433 62.62 268.723 62.07 269.303 61.61C269.823 61.21 270.443 61.01 271.163 61.01L271.133 64.88L271.163 69.44L271.193 71.75L271.313 71.87L271.523 71.99L271.883 72.02C272.243 72.02 272.673 71.86 273.173 71.54L273.743 71.12L274.283 70.61ZM285.9 63.11C285.9 63.65 285.46 64.45 284.58 65.51L282.51 67.64L282.57 67.52L282.63 67.34C282.69 67.22 282.75 67.03 282.81 66.77L282.87 65.93L282.99 65.36C282.99 64.94 282.93 64.61 282.81 64.37C282.61 64.05 282.35 63.89 282.03 63.89C281.65 63.89 281.08 64.33 280.32 65.21L279.57 66.11L278.94 67.01L278.97 72.59C278.49 73.03 278.04 73.37 277.62 73.61C277.16 73.89 276.68 74.08 276.18 74.18V64.25C276.18 64.11 276.11 63.98 275.97 63.86C275.83 63.74 275.67 63.67 275.49 63.65C275.29 63.67 275.05 63.77 274.77 63.95L274.11 64.46L274.65 63.65L275.01 63.17L276.24 61.91C276.88 61.33 277.35 61.04 277.65 61.04C277.97 61.04 278.22 61.14 278.4 61.34C278.58 61.52 278.72 61.79 278.82 62.15C278.88 62.51 278.91 62.82 278.91 63.08L278.94 63.98V65.96L280.32 63.95C281.04 62.99 281.62 62.32 282.06 61.94C282.78 61.34 283.44 61.04 284.04 61.04C284.64 61.04 285.09 61.24 285.39 61.64C285.73 62 285.9 62.49 285.9 63.11ZM297.971 63.35C297.971 63.75 297.811 64.14 297.491 64.52C297.171 64.9 296.621 65.39 295.841 65.99C295.701 65.19 295.261 64.5 294.521 63.92C293.781 63.28 292.991 62.96 292.151 62.96C291.351 62.96 290.711 63.44 290.231 64.4C289.851 65.12 289.661 66.14 289.661 67.46C289.661 68.66 289.991 69.74 290.651 70.7C291.431 71.74 292.321 72.26 293.321 72.26C294.341 72.26 295.161 72.11 295.781 71.81L296.501 71.42L297.341 70.85C296.461 72.09 295.641 72.94 294.881 73.4C294.141 73.88 293.001 74.12 291.461 74.12C289.881 74.12 288.771 73.67 288.131 72.77C287.471 71.87 287.141 70.53 287.141 68.75C287.141 66.55 287.781 64.72 289.061 63.26C290.361 61.82 291.741 61.1 293.201 61.1C294.661 61.1 295.821 61.35 296.681 61.85C297.541 62.35 297.971 62.85 297.971 63.35ZM311.277 71.81C310.997 72.39 310.577 72.92 310.017 73.4C309.457 73.88 308.847 74.12 308.187 74.12C307.567 74.12 307.087 73.91 306.747 73.49C306.487 73.09 306.357 70.4 306.357 65.42C306.357 64.96 306.327 64.66 306.267 64.52C306.127 64.26 305.817 64.13 305.337 64.13C304.877 64.13 304.257 64.61 303.477 65.57C302.697 66.53 302.307 68.4 302.307 71.18C302.307 71.54 302.237 71.9 302.097 72.26C301.957 72.58 301.747 72.91 301.467 73.25C301.187 73.51 300.867 73.72 300.507 73.88C300.327 73.96 300.157 74.02 299.997 74.06C299.797 74.1 299.607 74.12 299.427 74.12V59.18C299.427 57.82 299.807 56.61 300.567 55.55C301.307 54.51 303.237 53.99 306.357 53.99C306.097 54.49 305.787 54.89 305.427 55.19C305.047 55.51 304.587 55.72 304.047 55.82L303.237 55.88L302.577 56C302.397 56.06 302.307 59.42 302.307 66.08L303.657 64.07C304.357 63.15 304.937 62.5 305.397 62.12C306.077 61.56 306.787 61.22 307.527 61.1C308.207 61.1 308.697 61.39 308.997 61.97C309.137 62.31 309.207 65.06 309.207 70.22V72.32C309.247 72.56 309.357 72.68 309.537 72.68C309.837 72.68 310.217 72.52 310.677 72.2L311.277 71.81Z" fill="#FFF8EF"/>
<path d="M333.094 9.01934C333.094 9.3353 332.799 11.4632 332.68 12.0048C332.241 14.0295 331.312 15.9575 329.907 17.7694C329.399 18.4336 328.414 19.4524 326.544 21.2837C323.093 24.6496 321.054 27.6673 319.975 30.9881C319.461 32.5743 319.291 33.6898 319.291 35.4566C319.291 39.6543 320.446 43.2975 322.629 45.9799C323.802 47.4243 325.17 48.514 327.197 49.6231C329.129 50.6806 330.145 51.377 331.017 52.2346C331.638 52.8407 332.015 53.3695 332.304 54.0207C332.661 54.8203 332.624 54.8396 332.147 54.1046C331.595 53.2599 330.741 52.3507 330.07 51.8864C329.148 51.2609 327.447 50.4162 325.628 49.6876C323.219 48.7204 321.6 47.5468 320.276 45.7994C318.827 43.8972 317.842 41.3889 317.315 38.2615C317.039 36.6044 316.913 34.9795 316.813 31.6006C316.794 30.9623 316.763 30.0853 316.744 29.6469L316.706 28.8537L316.537 28.8731L316.374 28.8924L316.355 36.6946C316.336 44.2518 316.386 47.8112 316.537 49.1717C316.888 52.4474 317.616 54.7881 318.896 56.7805C319.53 57.7542 320.741 59.018 321.644 59.6306C323.15 60.6558 324.944 61.3264 326.914 61.6166C327.19 61.6553 327.611 61.7198 327.849 61.7585C329.976 62.0938 331.808 63.8541 332.617 66.356C332.912 67.2587 333.232 69.4769 333.439 71.9981C333.615 74.1646 333.59 73.997 333.753 73.997H333.897L333.947 72.5913C334.029 70.2958 334.01 61.8681 333.922 60.6816C333.602 56.4388 332.793 53.866 331.199 51.9444C330.622 51.2545 330.183 50.8805 328.514 49.6554C326.531 48.1981 325.948 47.7016 325.402 47.031C324.185 45.5286 323.702 44.3937 323.639 42.8784C323.564 41.1374 324.185 39.4931 325.578 37.7908C326.255 36.9526 326.544 36.6689 327.667 35.6952C328.219 35.218 328.909 34.5926 329.198 34.3088C330.195 33.3287 331.212 31.9553 331.808 30.7753L332.505 29.4286H336.095L336.106 71.2143L336.992 70.2857V29.4286H350.454L351.351 28.5H336.992V13L336.106 13.8832L336.095 28.5C334.216 28.5 332.754 28.5 332.954 28.5C333.18 27.8874 333.307 25.9908 333.307 25.9908C333.307 25.9908 333.54 23.8693 333.496 16.3637L333.452 9H333.27C333.176 9 333.094 9.00644 333.094 9.01934Z" fill="#FFF8EF"/>
<path d="M336.091 13.8892L337 13V28.4998H351.375L350.545 29.4998L337 29.4258V70.2979L336.091 71.2249V13.8892Z" fill="#FFF8EF"/>
<path d="M322.5 29.5L321.5 28.4998H336.091V29.4258L322.5 29.5Z" fill="#FFF8EF"/>
<line x1="1.9233e-07" y1="23" x2="66" y2="23" stroke="#FFF8EF" stroke-width="4"/>
<line x1="8" y1="29.5" x2="70" y2="29.5" stroke="#FFF8EF" stroke-width="3"/>
<line y1="-2" x2="66" y2="-2" transform="matrix(-1 7.94752e-08 9.61651e-08 1 318 25)" stroke="#FFF8EF" stroke-width="4"/>
<line y1="-1.5" x2="62" y2="-1.5" transform="matrix(-1 8.51521e-08 1.03034e-07 1 310 31)" stroke="#FFF8EF" stroke-width="3"/>
</svg>
