<svg width="498" height="143" viewBox="0 0 498 143" fill="none" xmlns="http://www.w3.org/2000/svg">
<path d="M464 20H69.4546L30 122.632H409.045L464 20Z" fill="#AD2C3F" stroke="#FFF8EF" stroke-width="40"/>
<g filter="url(#filter0_d_126_289)">
<path d="M464 20H69.4546L30 122.632H409.045L464 20Z" fill="#AD2C3F"/>
<path d="M464 20H69.4546L30 122.632H409.045L464 20Z" stroke="#AD2C3F" stroke-width="20"/>
</g>
<path d="M143.838 62V61.16L144.638 60.92C145.198 60.7333 145.558 60.4933 145.718 60.2C145.878 59.88 145.958 59.44 145.958 58.88V38.64C145.958 38.1067 145.878 37.6933 145.718 37.4C145.558 37.08 145.211 36.8267 144.678 36.64L143.838 36.4V35.56H153.758V36.4L152.998 36.64C152.491 36.8267 152.145 37.08 151.958 37.4C151.798 37.72 151.718 38.16 151.718 38.72V60.8H157.598C158.505 60.8 159.185 60.5733 159.638 60.12C160.091 59.6667 160.518 59.0133 160.918 58.16L162.398 54.84H163.518L163.118 62H143.838ZM165.256 62V61.328L165.896 61.136C166.322 60.9867 166.6 60.7947 166.728 60.56C166.877 60.304 166.952 59.952 166.952 59.504V43.344C166.952 42.896 166.877 42.5547 166.728 42.32C166.6 42.064 166.322 41.8613 165.896 41.712L165.256 41.52V40.848H173.256V41.52L172.616 41.712C172.21 41.8613 171.933 42.064 171.784 42.32C171.634 42.5547 171.56 42.896 171.56 43.344V59.504C171.56 59.952 171.634 60.304 171.784 60.56C171.933 60.7947 172.21 60.9867 172.616 61.136L173.256 61.328V62H165.256ZM175.108 62V61.328L176.036 61.072C176.442 60.9653 176.719 60.7627 176.868 60.464C177.039 60.1653 177.124 59.8027 177.124 59.376V43.888C176.932 43.4827 176.762 43.184 176.612 42.992C176.484 42.7787 176.346 42.5973 176.196 42.448C176.047 42.2987 175.844 42.128 175.588 41.936L175.012 41.52V40.848H180.484L191.108 55.376V43.504C191.108 43.0773 191.034 42.704 190.884 42.384C190.756 42.064 190.479 41.8507 190.052 41.744L189.092 41.52V40.848H193.86V41.52L193.06 41.744C192.655 41.872 192.399 42.096 192.292 42.416C192.207 42.7147 192.164 43.0773 192.164 43.504V62.128H190.372L178.18 45.36V59.344C178.18 59.792 178.244 60.1653 178.372 60.464C178.5 60.7627 178.767 60.9653 179.172 61.072L180.036 61.328V62H175.108ZM206.011 62.544C203.835 62.544 201.926 62.0853 200.283 61.168C198.641 60.2507 197.35 58.96 196.411 57.296C195.494 55.6107 195.035 53.6373 195.035 51.376C195.035 49.1573 195.483 47.216 196.379 45.552C197.297 43.888 198.619 42.5973 200.347 41.68C202.075 40.7413 204.145 40.272 206.555 40.272C207.707 40.272 208.774 40.4 209.755 40.656C210.758 40.912 211.697 41.2853 212.571 41.776L212.699 46.352H211.835L210.235 43.12C209.979 42.608 209.734 42.2347 209.499 42C209.265 41.7653 208.955 41.5947 208.571 41.488C208.294 41.3813 208.027 41.3173 207.771 41.296C207.515 41.2533 207.185 41.232 206.779 41.232C205.435 41.232 204.251 41.584 203.227 42.288C202.203 42.9707 201.403 44.0587 200.827 45.552C200.273 47.0453 199.995 48.9867 199.995 51.376C199.995 54.9813 200.582 57.5947 201.755 59.216C202.95 60.816 204.539 61.616 206.523 61.616C206.993 61.616 207.398 61.552 207.739 61.424C208.145 61.36 208.422 61.2 208.571 60.944C208.721 60.6667 208.795 60.3253 208.795 59.92C208.795 59.0453 208.785 58.096 208.763 57.072C208.763 56.0267 208.763 55.0773 208.763 54.224C208.763 53.392 208.326 52.88 207.451 52.688L206.011 52.368V51.696H214.843V52.368L214.459 52.464C214.054 52.592 213.745 52.784 213.531 53.04C213.318 53.2747 213.211 53.6053 213.211 54.032C213.211 54.8853 213.201 55.76 213.179 56.656C213.179 57.5307 213.179 58.416 213.179 59.312V60.688C212.07 61.2853 210.939 61.744 209.787 62.064C208.657 62.384 207.398 62.544 206.011 62.544ZM214.744 62V61.328L215.608 61.072C216.056 60.944 216.397 60.752 216.632 60.496C216.888 60.24 217.09 59.888 217.24 59.44L223.704 40.752H226.36L232.792 59.568C232.962 60.0373 233.154 60.4 233.368 60.656C233.581 60.8907 233.922 61.0827 234.392 61.232L234.872 61.36V62H226.744V61.36L227.288 61.2C227.757 61.0507 228.034 60.816 228.12 60.496C228.226 60.176 228.205 59.7813 228.056 59.312L226.712 55.184H219.64L218.264 59.248C218.114 59.7173 218.072 60.1013 218.136 60.4C218.2 60.6987 218.466 60.9333 218.936 61.104L219.64 61.328V62H214.744ZM219.96 54.256H226.424L223.288 44.624L219.96 54.256ZM236.265 62V61.328L237.193 61.072C237.598 60.9653 237.875 60.7627 238.025 60.464C238.195 60.1653 238.281 59.8027 238.281 59.376V43.888C238.089 43.4827 237.918 43.184 237.769 42.992C237.641 42.7787 237.502 42.5973 237.353 42.448C237.203 42.2987 237.001 42.128 236.745 41.936L236.169 41.52V40.848H241.641L252.265 55.376V43.504C252.265 43.0773 252.19 42.704 252.041 42.384C251.913 42.064 251.635 41.8507 251.209 41.744L250.249 41.52V40.848H255.017V41.52L254.217 41.744C253.811 41.872 253.555 42.096 253.449 42.416C253.363 42.7147 253.321 43.0773 253.321 43.504V62.128H251.529L239.337 45.36V59.344C239.337 59.792 239.401 60.1653 239.529 60.464C239.657 60.7627 239.923 60.9653 240.329 61.072L241.193 61.328V62H236.265ZM266.24 62.544C264.938 62.544 263.69 62.3093 262.496 61.84C261.301 61.3707 260.224 60.6773 259.264 59.76C258.325 58.8213 257.578 57.6587 257.024 56.272C256.469 54.8853 256.192 53.264 256.192 51.408C256.192 49.5947 256.469 47.9947 257.024 46.608C257.578 45.2213 258.325 44.0587 259.264 43.12C260.224 42.1813 261.301 41.4773 262.496 41.008C263.712 40.5173 264.96 40.272 266.24 40.272C267.52 40.272 268.757 40.5067 269.952 40.976C271.168 41.4453 272.245 42.1493 273.184 43.088C274.122 44.0053 274.869 45.1573 275.424 46.544C275.978 47.9307 276.256 49.552 276.256 51.408C276.256 53.2213 275.978 54.8213 275.424 56.208C274.869 57.5947 274.122 58.7573 273.184 59.696C272.245 60.6347 271.178 61.3493 269.984 61.84C268.789 62.3093 267.541 62.544 266.24 62.544ZM266.24 61.584C267.456 61.584 268.437 61.2747 269.184 60.656C269.93 60.016 270.474 58.9493 270.816 57.456C271.157 55.9627 271.328 53.9467 271.328 51.408C271.328 48.8693 271.157 46.864 270.816 45.392C270.474 43.8987 269.93 42.8427 269.184 42.224C268.437 41.584 267.456 41.264 266.24 41.264C265.045 41.264 264.064 41.584 263.296 42.224C262.549 42.8427 262.005 43.8987 261.664 45.392C261.322 46.864 261.152 48.8693 261.152 51.408C261.152 53.9467 261.322 55.9627 261.664 57.456C262.005 58.9493 262.549 60.016 263.296 60.656C264.064 61.2747 265.045 61.584 266.24 61.584ZM277.099 62V61.328L277.771 61.136C278.198 61.008 278.465 60.8267 278.571 60.592C278.699 60.336 278.763 59.984 278.763 59.536C278.785 58.2987 278.795 57.0613 278.795 55.824C278.795 54.5867 278.795 53.3387 278.795 52.08V50.768C278.795 49.5307 278.795 48.2933 278.795 47.056C278.795 45.8187 278.785 44.5813 278.763 43.344C278.763 42.896 278.71 42.5547 278.603 42.32C278.497 42.064 278.23 41.872 277.803 41.744L277.099 41.52V40.848H286.059C288.555 40.848 290.475 41.328 291.819 42.288C293.185 43.2267 293.867 44.5493 293.867 46.256C293.867 47.1947 293.494 48.144 292.747 49.104C292.022 50.064 290.902 50.8 289.387 51.312L293.739 59.792C294.102 60.496 294.667 60.976 295.435 61.232L296.043 61.36V62H290.379L285.611 52.016H283.307C283.307 53.5307 283.307 54.896 283.307 56.112C283.307 57.328 283.318 58.4693 283.339 59.536C283.339 59.9627 283.403 60.304 283.531 60.56C283.681 60.816 283.958 60.9973 284.363 61.104L285.131 61.328V62H277.099ZM283.307 51.088H285.035C286.55 51.088 287.659 50.704 288.363 49.936C289.067 49.168 289.419 47.9947 289.419 46.416C289.419 44.8373 289.078 43.6747 288.395 42.928C287.734 42.16 286.657 41.776 285.163 41.776H283.339C283.339 42.608 283.329 43.4613 283.307 44.336C283.307 45.1893 283.307 46.16 283.307 47.248C283.307 48.3147 283.307 49.5947 283.307 51.088ZM297.099 62V61.328L297.739 61.104C298.123 60.9973 298.39 60.816 298.539 60.56C298.689 60.2827 298.774 59.9093 298.795 59.44V43.344C298.774 42.896 298.699 42.5547 298.571 42.32C298.443 42.064 298.177 41.872 297.771 41.744L297.099 41.52V40.848H312.331L312.555 45.968H311.659L310.379 43.088C310.209 42.6827 310.017 42.3733 309.803 42.16C309.59 41.9253 309.27 41.808 308.843 41.808H303.403C303.382 43.1307 303.371 44.496 303.371 45.904C303.371 47.2907 303.371 48.8587 303.371 50.608H306.539C306.966 50.608 307.286 50.5013 307.499 50.288C307.734 50.0533 307.947 49.744 308.139 49.36L308.683 48.144H309.387V54.064H308.683L308.107 52.848C307.937 52.464 307.745 52.1547 307.531 51.92C307.318 51.6853 306.998 51.568 306.571 51.568H303.371C303.371 53.104 303.371 54.4267 303.371 55.536C303.371 56.6453 303.371 57.6373 303.371 58.512C303.393 59.3653 303.403 60.208 303.403 61.04H309.547C309.974 61.04 310.305 60.9333 310.539 60.72C310.774 60.4853 310.966 60.1653 311.115 59.76L312.299 56.88H313.195L312.971 62H297.099Z" fill="#FFF8EF"/>
<path d="M104.361 76.12L104.211 76.03C104.011 75.83 103.721 75.65 103.341 75.49C102.961 75.33 102.701 75.25 102.561 75.25L102.141 75.31C101.821 75.31 101.601 75.47 101.481 75.79C101.281 76.11 101.181 81.53 101.181 92.05C101.181 92.81 101.481 93.51 102.081 94.15C102.601 94.69 103.271 95.11 104.091 95.41H97.4313V93.88C96.4713 95.2 95.3613 96.25 94.1013 97.03C92.6813 97.91 91.2813 98.35 89.9013 98.35C88.5213 98.35 87.3613 98.17 86.4213 97.81C85.2213 97.35 84.3713 96.66 83.8713 95.74C83.3313 94.8 82.9413 93.79 82.7013 92.71C82.4613 91.59 82.3413 90.27 82.3413 88.75C82.3413 88.01 82.4213 87.22 82.5813 86.38C82.7013 85.72 82.9513 84.88 83.3313 83.86C83.9113 82.22 84.8113 80.7 86.0313 79.3C86.6913 78.54 87.3113 77.87 87.8913 77.29C88.4713 76.73 89.1813 76.1 90.0213 75.4L84.7413 75.37C82.4013 75.37 80.5813 75.93 79.2813 77.05C77.9013 78.27 77.2113 79.76 77.2113 81.52C77.2113 83.28 77.5013 84.73 78.0813 85.87C78.6813 86.97 79.5213 87.79 80.6013 88.33C79.0813 88.15 77.8413 87.49 76.8813 86.35C75.9213 85.17 75.4413 83.82 75.4413 82.3V81.85C75.4413 81.81 75.4513 81.76 75.4713 81.7C75.4713 81.62 75.4813 81.57 75.5013 81.55C75.5013 81.33 75.5513 81.05 75.6513 80.71L76.1913 79.24L76.7613 78.34L77.5713 77.41L78.4113 76.66L79.3713 76C80.2513 75.4 81.2613 75 82.4013 74.8C83.6613 74.58 87.2013 74.47 93.0213 74.47L91.1313 76.6C90.6713 77.12 90.1813 77.75 89.6613 78.49C89.1213 79.23 88.6613 79.96 88.2813 80.68C87.8813 81.38 87.5213 82.17 87.2013 83.05C86.5813 84.61 86.2713 86.18 86.2713 87.76C86.2713 89.28 86.3613 90.46 86.5413 91.3C86.8413 92.68 87.3313 93.58 88.0113 94C88.6113 94.34 89.2713 94.6 89.9913 94.78C90.7513 94.96 91.5813 95.05 92.4813 95.05C93.4213 95.05 94.4513 94.7 95.5713 94C96.8113 93.18 97.4313 87.26 97.4313 76.24C97.4313 75.84 97.3313 75.51 97.1313 75.25C96.9313 75.01 96.5913 74.79 96.1113 74.59L95.9013 74.5L101.691 74.47C102.171 74.47 102.661 74.63 103.161 74.95C103.701 75.31 104.101 75.7 104.361 76.12ZM116.148 91.81C115.808 92.47 115.378 93 114.858 93.4C114.638 93.58 114.338 93.77 113.958 93.97L113.928 94C113.628 94.12 113.328 94.18 113.028 94.18C112.428 94.18 111.978 94 111.678 93.64C111.378 93.3 111.228 91.1 111.228 87.04V85.42C111.228 85.02 111.168 84.67 111.048 84.37C110.888 84.09 110.598 83.95 110.178 83.95C109.718 83.95 109.128 84.4 108.408 85.3L107.838 86.14L107.028 87.37V90.37V91.3L106.968 92.62L106.908 92.74C106.588 93.18 106.188 93.51 105.708 93.73C105.368 93.91 104.878 94.06 104.238 94.18L104.268 90.19V87.85V85.81C104.268 84.55 104.228 83.81 104.148 83.59C104.068 83.53 103.958 83.49 103.818 83.47C103.618 83.51 103.348 83.61 103.008 83.77L102.198 84.28C102.798 83.52 103.328 82.91 103.788 82.45C104.668 81.61 105.288 81.19 105.648 81.19C106.068 81.19 106.378 81.32 106.578 81.58C106.678 81.74 106.778 82.06 106.878 82.54L106.998 84.13L107.028 86.05L108.378 84.13L109.218 83.02C110.318 81.8 111.308 81.19 112.188 81.19C113.068 81.19 113.628 81.58 113.868 82.36C114.008 82.72 114.078 83.48 114.078 84.64L114.048 88.48V90.4V92.14L114.168 92.62C114.228 92.74 114.358 92.8 114.558 92.8C114.758 92.8 115.038 92.68 115.398 92.44L116.148 91.81ZM123.296 76.54C123.296 77.1 123.026 77.61 122.486 78.07C121.906 78.53 121.376 78.76 120.896 78.76C120.336 78.76 119.966 78.49 119.786 77.95C119.606 77.43 119.516 76.95 119.516 76.51C119.516 75.17 119.976 74.5 120.896 74.5C121.876 74.5 122.506 74.7 122.786 75.1C123.126 75.5 123.296 75.98 123.296 76.54ZM124.916 91.84C124.416 92.62 124.006 93.17 123.686 93.49C123.126 93.95 122.546 94.18 121.946 94.18C121.326 94.18 120.846 93.95 120.506 93.49C120.186 93.05 120.026 89.59 120.026 83.11L119.936 82.75C119.816 82.63 119.676 82.57 119.516 82.57C119.336 82.57 119.056 82.69 118.676 82.93L117.866 83.59C117.906 83.37 118.136 83.03 118.556 82.57L119.546 81.67C119.786 81.49 120.036 81.35 120.296 81.25L120.806 81.07L120.926 81.04H121.406C121.626 81.04 121.906 81.21 122.246 81.55C122.566 81.89 122.736 82.22 122.756 82.54V83.14L122.816 83.47V91.87C122.856 92.15 122.906 92.35 122.966 92.47C123.086 92.65 123.256 92.74 123.476 92.74C123.756 92.7 124.066 92.54 124.406 92.26L124.916 91.84ZM133.85 90.55C133.31 91.55 132.73 92.34 132.11 92.92C131.21 93.76 130.39 94.18 129.65 94.18C128.87 94.18 128.37 93.77 128.15 92.95C128.03 92.53 127.97 89.02 127.97 82.42L126.23 82.45L126.29 82.09L126.44 81.82C126.52 81.7 126.84 81.45 127.4 81.07L128.51 80.26C128.93 79.88 129.36 79.29 129.8 78.49L130.25 77.56L130.73 76.45V81.13L133.19 81.16C132.99 81.5 132.73 81.78 132.41 82L131.87 82.27C131.63 82.35 131.44 82.4 131.3 82.42H131.06L130.73 82.45V91.51C130.73 91.67 130.76 91.83 130.82 91.99C130.94 92.11 131.12 92.17 131.36 92.17C131.6 92.17 132.02 91.96 132.62 91.54C132.84 91.44 133.25 91.11 133.85 90.55ZM146.143 90.49C145.363 91.65 144.493 92.55 143.533 93.19C142.593 93.81 141.423 94.12 140.023 94.12C138.563 94.12 137.413 93.6 136.573 92.56C135.733 91.5 135.313 90.23 135.313 88.75C135.313 86.67 135.903 84.89 137.083 83.41C138.343 81.85 139.693 81.07 141.133 81.07C142.533 81.07 143.593 81.28 144.313 81.7C144.793 81.96 145.393 82.47 146.113 83.23L138.823 90.49C139.143 91.09 139.633 91.52 140.293 91.78C140.773 91.98 141.383 92.08 142.123 92.08C142.503 92.08 142.843 92.04 143.143 91.96C143.503 91.86 143.873 91.73 144.253 91.57C145.073 91.21 145.703 90.85 146.143 90.49ZM142.243 85C142.243 84.5 142.103 84.05 141.823 83.65C141.523 83.29 141.023 83.06 140.323 82.96C139.583 82.96 139.003 83.49 138.583 84.55C138.483 84.83 138.373 85.23 138.253 85.75C138.173 86.09 138.133 86.45 138.133 86.83C138.133 87.55 138.163 88.08 138.223 88.42C138.243 88.5 138.253 88.57 138.253 88.63C138.273 88.73 138.283 88.8 138.283 88.84C138.283 88.92 138.303 89.02 138.343 89.14C138.343 89.3 138.413 89.53 138.553 89.83L139.933 88.51L140.593 87.82L141.493 86.8C141.713 86.52 141.903 86.21 142.063 85.87C142.183 85.59 142.243 85.3 142.243 85ZM162.405 73.99C162.045 74.69 161.605 75.18 161.085 75.46C160.905 75.56 160.615 75.67 160.215 75.79C159.915 75.87 159.575 75.91 159.195 75.91L158.625 75.97C158.405 76.09 158.295 76.24 158.295 76.42V92.26C158.295 92.52 158.435 92.65 158.715 92.65C159.035 92.61 159.435 92.45 159.915 92.17L160.575 91.81C160.395 92.25 160.055 92.68 159.555 93.1C159.075 93.52 158.615 93.82 158.175 94L157.875 94.06L157.515 94.18C156.555 94 155.945 93.48 155.685 92.62C155.565 92.16 155.505 91.32 155.505 90.1L154.875 90.82L154.035 91.63C153.155 92.43 152.475 93.01 151.995 93.37C151.715 93.55 151.335 93.75 150.855 93.97C150.515 94.11 150.185 94.18 149.865 94.18C149.205 94.18 148.635 93.64 148.155 92.56C147.795 91.62 147.615 90.31 147.615 88.63C147.615 87.75 147.785 86.88 148.125 86.02C148.485 85.2 149.025 84.38 149.745 83.56C150.445 82.76 151.275 82.17 152.235 81.79C153.255 81.39 154.345 81.19 155.505 81.19V79.12C155.505 77.76 155.865 76.6 156.585 75.64C157.425 74.54 159.365 73.99 162.405 73.99ZM155.505 88.72V82C154.105 82 152.915 82.53 151.935 83.59C150.975 84.67 150.495 85.76 150.495 86.86C150.495 87.98 150.585 88.78 150.765 89.26C151.065 89.96 151.525 90.31 152.145 90.31C152.765 90.31 153.395 90.14 154.035 89.8C154.355 89.6 154.845 89.24 155.505 88.72ZM204.525 100.6H201.735C200.315 100.6 199.035 100.35 197.895 99.85C196.735 99.35 195.735 98.59 194.895 97.57C193.135 95.39 191.875 92.9 191.115 90.1C190.755 88.82 190.465 87.39 190.245 85.81C190.045 84.41 189.945 82.89 189.945 81.25L189.405 82.39L189.225 82.84L189.075 83.32L188.415 85.45L187.695 87.79L187.035 90.4L186.675 91.93L186.435 92.83L185.565 91.06L185.025 89.77L183.705 86.26L182.625 83.02L182.205 81.7L181.755 80.41C181.755 83.05 181.315 85.95 180.435 89.11C179.575 92.19 178.415 94.94 176.955 97.36C176.375 98.38 175.725 99.14 175.005 99.64C174.145 100.32 173.135 100.66 171.975 100.66C170.815 100.66 169.825 100 169.005 98.68C168.365 97.7 167.955 96.44 167.775 94.9C168.375 95.62 169.075 96.16 169.875 96.52C170.755 96.94 171.645 97.15 172.545 97.15C173.425 97.15 174.275 96.92 175.095 96.46C175.875 96.04 176.555 95.36 177.135 94.42C178.055 92.96 178.855 91.21 179.535 89.17C180.055 87.43 180.445 85.54 180.705 83.5L180.945 81.1L180.975 79.57V78.7C180.975 78.56 180.925 78.14 180.825 77.44V77.35C180.705 76.67 180.435 76.12 180.015 75.7C179.495 75.18 178.415 74.92 176.775 74.92C175.115 74.92 173.555 75.5 172.095 76.66C170.515 77.92 169.725 79.36 169.725 80.98C169.725 82.52 169.835 83.75 170.055 84.67C170.315 85.53 170.705 86.32 171.225 87.04L172.305 88.36C172.545 88.64 172.685 88.87 172.725 89.05C172.705 89.19 172.565 89.34 172.305 89.5C172.245 89.56 171.805 89.7 170.985 89.92C170.065 89.42 169.375 88.5 168.915 87.16C168.455 85.8 168.225 84.55 168.225 83.41C168.225 81.11 168.805 79.23 169.965 77.77C170.965 76.49 172.365 75.55 174.165 74.95C175.945 74.35 177.595 74.05 179.115 74.05C180.495 74.05 181.515 74.19 182.175 74.47C182.755 74.73 183.245 75.17 183.645 75.79C184.145 76.59 184.565 77.45 184.905 78.37C185.105 78.91 185.375 79.82 185.715 81.1L186.165 82.72L186.495 83.77L186.735 84.61L187.215 86.05L187.875 83.8C188.395 82.12 188.925 80.71 189.465 79.57C190.305 77.91 191.225 76.63 192.225 75.73C193.465 74.61 194.635 74.05 195.735 74.05C196.835 74.05 197.665 74.2 198.225 74.5C198.765 74.78 199.205 75.25 199.545 75.91C199.265 75.55 198.825 75.24 198.225 74.98C197.665 74.74 196.945 74.62 196.065 74.62C195.205 74.62 194.365 75.24 193.545 76.48C192.885 77.58 192.555 78.62 192.555 79.6V80.17C192.555 80.23 192.565 80.36 192.585 80.56L192.615 80.95C192.615 81.23 192.625 81.44 192.645 81.58C192.665 81.68 192.685 81.8 192.705 81.94C192.725 82.08 192.745 82.2 192.765 82.3L193.215 84.4C193.435 85.34 193.755 86.41 194.175 87.61C194.575 88.73 195.005 89.74 195.465 90.64C196.005 91.7 196.545 92.68 197.085 93.58C197.385 94.1 197.695 94.56 198.015 94.96C198.315 95.42 198.645 95.87 199.005 96.31C199.745 97.21 200.605 98.06 201.585 98.86C202.505 99.58 203.485 100.16 204.525 100.6ZM209.014 90.49C208.234 91.65 207.364 92.55 206.404 93.19C205.464 93.81 204.294 94.12 202.894 94.12C201.434 94.12 200.284 93.6 199.444 92.56C198.604 91.5 198.184 90.23 198.184 88.75C198.184 86.67 198.774 84.89 199.954 83.41C201.214 81.85 202.564 81.07 204.004 81.07C205.404 81.07 206.464 81.28 207.184 81.7C207.664 81.96 208.264 82.47 208.984 83.23L201.694 90.49C202.014 91.09 202.504 91.52 203.164 91.78C203.644 91.98 204.254 92.08 204.994 92.08C205.374 92.08 205.714 92.04 206.014 91.96C206.374 91.86 206.744 91.73 207.124 91.57C207.944 91.21 208.574 90.85 209.014 90.49ZM205.114 85C205.114 84.5 204.974 84.05 204.694 83.65C204.394 83.29 203.894 83.06 203.194 82.96C202.454 82.96 201.874 83.49 201.454 84.55C201.354 84.83 201.244 85.23 201.124 85.75C201.044 86.09 201.004 86.45 201.004 86.83C201.004 87.55 201.034 88.08 201.094 88.42C201.114 88.5 201.124 88.57 201.124 88.63C201.144 88.73 201.154 88.8 201.154 88.84C201.154 88.92 201.174 89.02 201.214 89.14C201.214 89.3 201.284 89.53 201.424 89.83L202.804 88.51L203.464 87.82L204.364 86.8C204.584 86.52 204.774 86.21 204.934 85.87C205.054 85.59 205.114 85.3 205.114 85ZM218.196 90.55C217.656 91.55 217.076 92.34 216.456 92.92C215.556 93.76 214.736 94.18 213.996 94.18C213.216 94.18 212.716 93.77 212.496 92.95C212.376 92.53 212.316 89.02 212.316 82.42L210.576 82.45L210.636 82.09L210.786 81.82C210.866 81.7 211.186 81.45 211.746 81.07L212.856 80.26C213.276 79.88 213.706 79.29 214.146 78.49L214.596 77.56L215.076 76.45V81.13L217.536 81.16C217.336 81.5 217.076 81.78 216.756 82L216.216 82.27C215.976 82.35 215.786 82.4 215.646 82.42H215.406L215.076 82.45V91.51C215.076 91.67 215.106 91.83 215.166 91.99C215.286 92.11 215.466 92.17 215.706 92.17C215.946 92.17 216.366 91.96 216.966 91.54C217.186 91.44 217.596 91.11 218.196 90.55ZM231.629 91.81C231.349 92.39 230.929 92.92 230.369 93.4C229.809 93.88 229.199 94.12 228.539 94.12C227.919 94.12 227.439 93.91 227.099 93.49C226.839 93.09 226.709 90.4 226.709 85.42C226.709 84.96 226.679 84.66 226.619 84.52C226.479 84.26 226.169 84.13 225.689 84.13C225.229 84.13 224.609 84.61 223.829 85.57C223.049 86.53 222.659 88.4 222.659 91.18C222.659 91.54 222.589 91.9 222.449 92.26C222.309 92.58 222.099 92.91 221.819 93.25C221.539 93.51 221.219 93.72 220.859 93.88C220.679 93.96 220.509 94.02 220.349 94.06C220.149 94.1 219.959 94.12 219.779 94.12V79.18C219.779 77.82 220.159 76.61 220.919 75.55C221.659 74.51 223.589 73.99 226.709 73.99C226.449 74.49 226.139 74.89 225.779 75.19C225.399 75.51 224.939 75.72 224.399 75.82L223.589 75.88L222.929 76C222.749 76.06 222.659 79.42 222.659 86.08L224.009 84.07C224.709 83.15 225.289 82.5 225.749 82.12C226.429 81.56 227.139 81.22 227.879 81.1C228.559 81.1 229.049 81.39 229.349 81.97C229.489 82.31 229.559 85.06 229.559 90.22V92.32C229.599 92.56 229.709 92.68 229.889 92.68C230.189 92.68 230.569 92.52 231.029 92.2L231.629 91.81ZM244.6 87.22C244.6 88.92 243.94 90.51 242.62 91.99C241.28 93.45 239.77 94.18 238.09 94.18C236.39 94.18 235.05 93.54 234.07 92.26C233.23 91.08 232.81 89.64 232.81 87.94C232.81 86.18 233.46 84.59 234.76 83.17C236.06 81.75 237.57 81.04 239.29 81.04C240.99 81.04 242.32 81.66 243.28 82.9C244.16 84.06 244.6 85.5 244.6 87.22ZM241.9 88.96C241.9 88.56 241.88 88.1 241.84 87.58C241.82 87.34 241.76 86.95 241.66 86.41C241.66 86.37 241.65 86.32 241.63 86.26C241.39 85.14 241.04 84.27 240.58 83.65C239.94 82.83 239.17 82.42 238.27 82.42C237.43 82.42 236.72 82.83 236.14 83.65C235.68 84.35 235.45 85.21 235.45 86.23C235.45 86.51 235.47 86.97 235.51 87.61V87.7C235.53 88.18 235.59 88.68 235.69 89.2C235.89 90.18 236.2 90.97 236.62 91.57C237.22 92.37 238 92.77 238.96 92.77C239.92 92.77 240.67 92.35 241.21 91.51C241.67 90.75 241.9 89.9 241.9 88.96ZM261.106 73.99C260.746 74.69 260.306 75.18 259.786 75.46C259.606 75.56 259.316 75.67 258.916 75.79C258.616 75.87 258.276 75.91 257.896 75.91L257.326 75.97C257.106 76.09 256.996 76.24 256.996 76.42V92.26C256.996 92.52 257.136 92.65 257.416 92.65C257.736 92.61 258.136 92.45 258.616 92.17L259.276 91.81C259.096 92.25 258.756 92.68 258.256 93.1C257.776 93.52 257.316 93.82 256.876 94L256.576 94.06L256.216 94.18C255.256 94 254.646 93.48 254.386 92.62C254.266 92.16 254.206 91.32 254.206 90.1L253.576 90.82L252.736 91.63C251.856 92.43 251.176 93.01 250.696 93.37C250.416 93.55 250.036 93.75 249.556 93.97C249.216 94.11 248.886 94.18 248.566 94.18C247.906 94.18 247.336 93.64 246.856 92.56C246.496 91.62 246.316 90.31 246.316 88.63C246.316 87.75 246.486 86.88 246.826 86.02C247.186 85.2 247.726 84.38 248.446 83.56C249.146 82.76 249.976 82.17 250.936 81.79C251.956 81.39 253.046 81.19 254.206 81.19V79.12C254.206 77.76 254.566 76.6 255.286 75.64C256.126 74.54 258.066 73.99 261.106 73.99ZM254.206 88.72V82C252.806 82 251.616 82.53 250.636 83.59C249.676 84.67 249.196 85.76 249.196 86.86C249.196 87.98 249.286 88.78 249.466 89.26C249.766 89.96 250.226 90.31 250.846 90.31C251.466 90.31 252.096 90.14 252.736 89.8C253.056 89.6 253.546 89.24 254.206 88.72ZM266.206 76.54C266.206 77.1 265.936 77.61 265.396 78.07C264.816 78.53 264.286 78.76 263.806 78.76C263.246 78.76 262.876 78.49 262.696 77.95C262.516 77.43 262.426 76.95 262.426 76.51C262.426 75.17 262.886 74.5 263.806 74.5C264.786 74.5 265.416 74.7 265.696 75.1C266.036 75.5 266.206 75.98 266.206 76.54ZM267.826 91.84C267.326 92.62 266.916 93.17 266.596 93.49C266.036 93.95 265.456 94.18 264.856 94.18C264.236 94.18 263.756 93.95 263.416 93.49C263.096 93.05 262.936 89.59 262.936 83.11L262.846 82.75C262.726 82.63 262.586 82.57 262.426 82.57C262.246 82.57 261.966 82.69 261.586 82.93L260.776 83.59C260.816 83.37 261.046 83.03 261.466 82.57L262.456 81.67C262.696 81.49 262.946 81.35 263.206 81.25L263.716 81.07L263.836 81.04H264.316C264.536 81.04 264.816 81.21 265.156 81.55C265.476 81.89 265.646 82.22 265.666 82.54V83.14L265.726 83.47V91.87C265.766 92.15 265.816 92.35 265.876 92.47C265.996 92.65 266.166 92.74 266.386 92.74C266.666 92.7 266.976 92.54 267.316 92.26L267.826 91.84ZM277.601 90.25C277.601 91.65 277.071 92.68 276.011 93.34C275.151 93.82 274.191 94.06 273.131 94.06C272.831 94.06 272.571 94.05 272.351 94.03H271.751L270.791 93.94C270.111 93.76 269.651 93.52 269.411 93.22C269.271 93.04 269.151 92.78 269.051 92.44C268.951 92.04 268.901 91.63 268.901 91.21L268.781 90.04V89.05C269.181 90.17 269.821 91.13 270.701 91.93C271.581 92.73 272.481 93.13 273.401 93.13C274.281 93.13 274.901 92.98 275.261 92.68C275.621 92.34 275.801 91.88 275.801 91.3C275.801 90.72 275.211 90.14 274.031 89.56C273.211 89.18 272.501 88.83 271.901 88.51C271.381 88.25 270.991 88.03 270.731 87.85C269.551 86.95 268.961 85.83 268.961 84.49C268.961 83.15 269.381 82.21 270.221 81.67C270.901 81.23 271.851 81.01 273.071 81.01L273.251 80.98L275.741 81.37L276.461 81.31L276.971 81.13L277.421 80.95C277.261 81.21 277.121 81.47 277.001 81.73L276.761 82.36L276.311 83.86L276.251 84.04C275.631 83.36 275.081 82.9 274.601 82.66C273.961 82.32 273.311 82.15 272.651 82.15C271.991 82.15 271.471 82.25 271.091 82.45C270.691 82.67 270.491 83.04 270.491 83.56C270.491 84.1 271.111 84.63 272.351 85.15C274.151 85.89 275.291 86.43 275.771 86.77C276.991 87.67 277.601 88.83 277.601 90.25ZM286.663 90.55C286.123 91.55 285.543 92.34 284.923 92.92C284.023 93.76 283.203 94.18 282.463 94.18C281.683 94.18 281.183 93.77 280.963 92.95C280.843 92.53 280.783 89.02 280.783 82.42L279.043 82.45L279.103 82.09L279.253 81.82C279.333 81.7 279.653 81.45 280.213 81.07L281.323 80.26C281.743 79.88 282.173 79.29 282.613 78.49L283.063 77.56L283.543 76.45V81.13L286.003 81.16C285.803 81.5 285.543 81.78 285.223 82L284.683 82.27C284.443 82.35 284.253 82.4 284.113 82.42H283.873L283.543 82.45V91.51C283.543 91.67 283.573 91.83 283.633 91.99C283.753 92.11 283.933 92.17 284.173 92.17C284.413 92.17 284.833 91.96 285.433 91.54C285.653 91.44 286.063 91.11 286.663 90.55ZM316.086 93.13C316.086 93.85 315.926 94.56 315.606 95.26C315.346 95.92 314.926 96.57 314.346 97.21C313.886 97.73 313.216 98.11 312.336 98.35L311.196 98.68C310.696 98.78 310.326 98.83 310.086 98.83C309.466 98.91 308.676 98.95 307.716 98.95H307.356H306.906C305.766 98.95 304.426 98.71 302.886 98.23C302.026 97.97 301.306 97.69 300.726 97.39C300.066 97.07 299.436 96.68 298.836 96.22C297.516 95.18 296.576 93.92 296.016 92.44C295.456 90.94 295.176 89.28 295.176 87.46C295.176 85.58 295.436 83.8 295.956 82.12C296.476 80.46 297.306 79.06 298.446 77.92C299.526 76.84 300.696 76.01 301.956 75.43C303.276 74.81 307.126 74.5 313.506 74.5C313.626 74.94 313.726 75.25 313.806 75.43C313.886 75.67 313.956 75.86 314.016 76C314.056 76.14 314.116 76.28 314.196 76.42L315.186 78.19C315.566 78.89 315.836 79.51 315.996 80.05L314.976 79.18L313.296 77.71C312.216 76.89 311.086 76.28 309.906 75.88C308.806 75.5 307.576 75.31 306.216 75.31C304.916 75.31 303.796 75.49 302.856 75.85C301.696 76.29 300.876 76.98 300.396 77.92C300.116 78.38 299.906 78.85 299.766 79.33C299.726 79.43 299.636 79.74 299.496 80.26C299.416 80.48 299.346 80.7 299.286 80.92C299.266 81.02 299.256 81.07 299.256 81.07C298.996 82.13 298.866 83.42 298.866 84.94C298.866 85.62 298.946 86.42 299.106 87.34C299.266 88.24 299.486 89.19 299.766 90.19C300.446 92.45 301.406 94.26 302.646 95.62C304.126 97.22 305.886 98.02 307.926 98.02C309.946 98.02 311.566 97.66 312.786 96.94C314.046 96.2 315.146 94.93 316.086 93.13ZM329.422 91.81C329.142 92.39 328.722 92.92 328.162 93.4C327.602 93.88 326.992 94.12 326.332 94.12C325.712 94.12 325.232 93.91 324.892 93.49C324.632 93.09 324.502 90.4 324.502 85.42C324.502 84.96 324.472 84.66 324.412 84.52C324.272 84.26 323.962 84.13 323.482 84.13C323.022 84.13 322.402 84.61 321.622 85.57C320.842 86.53 320.452 88.4 320.452 91.18C320.452 91.54 320.382 91.9 320.242 92.26C320.102 92.58 319.892 92.91 319.612 93.25C319.332 93.51 319.012 93.72 318.652 93.88C318.472 93.96 318.302 94.02 318.142 94.06C317.942 94.1 317.752 94.12 317.572 94.12V79.18C317.572 77.82 317.952 76.61 318.712 75.55C319.452 74.51 321.382 73.99 324.502 73.99C324.242 74.49 323.932 74.89 323.572 75.19C323.192 75.51 322.732 75.72 322.192 75.82L321.382 75.88L320.722 76C320.542 76.06 320.452 79.42 320.452 86.08L321.802 84.07C322.502 83.15 323.082 82.5 323.542 82.12C324.222 81.56 324.932 81.22 325.672 81.1C326.352 81.1 326.842 81.39 327.142 81.97C327.282 82.31 327.352 85.06 327.352 90.22V92.32C327.392 92.56 327.502 92.68 327.682 92.68C327.982 92.68 328.362 92.52 328.822 92.2L329.422 91.81ZM344.283 90.61L343.113 92.11L342.363 92.92L341.613 93.52C341.053 93.96 340.423 94.18 339.723 94.18C339.083 94.18 338.673 93.8 338.493 93.04L338.433 90.91L337.713 91.66L336.993 92.32L336.093 93.07L335.283 93.61C334.603 93.99 333.933 94.18 333.273 94.18C332.553 94.18 332.043 93.78 331.743 92.98C331.523 92.38 331.413 89.29 331.413 83.71L331.293 82.93C331.233 82.71 331.083 82.6 330.843 82.6C330.643 82.6 330.403 82.66 330.123 82.78L329.433 83.14C329.833 82.52 330.303 82.01 330.843 81.61C331.423 81.21 331.993 81.01 332.553 81.01C333.133 81.01 333.563 81.27 333.843 81.79C334.063 82.23 334.173 84.6 334.173 88.9L334.233 90.67C334.413 91.33 334.693 91.66 335.073 91.66C335.473 91.66 335.803 91.6 336.063 91.48L336.663 91.09C336.943 90.87 337.163 90.68 337.323 90.52L337.803 89.92C338.223 89.34 338.433 87.12 338.433 83.26C338.433 82.62 338.723 82.07 339.303 81.61C339.823 81.21 340.443 81.01 341.163 81.01L341.133 84.88L341.163 89.44L341.193 91.75L341.313 91.87L341.523 91.99L341.883 92.02C342.243 92.02 342.673 91.86 343.173 91.54L343.743 91.12L344.283 90.61ZM355.9 83.11C355.9 83.65 355.46 84.45 354.58 85.51L352.51 87.64L352.57 87.52L352.63 87.34C352.69 87.22 352.75 87.03 352.81 86.77L352.87 85.93L352.99 85.36C352.99 84.94 352.93 84.61 352.81 84.37C352.61 84.05 352.35 83.89 352.03 83.89C351.65 83.89 351.08 84.33 350.32 85.21L349.57 86.11L348.94 87.01L348.97 92.59C348.49 93.03 348.04 93.37 347.62 93.61C347.16 93.89 346.68 94.08 346.18 94.18V84.25C346.18 84.11 346.11 83.98 345.97 83.86C345.83 83.74 345.67 83.67 345.49 83.65C345.29 83.67 345.05 83.77 344.77 83.95L344.11 84.46L344.65 83.65L345.01 83.17L346.24 81.91C346.88 81.33 347.35 81.04 347.65 81.04C347.97 81.04 348.22 81.14 348.4 81.34C348.58 81.52 348.72 81.79 348.82 82.15C348.88 82.51 348.91 82.82 348.91 83.08L348.94 83.98V85.96L350.32 83.95C351.04 82.99 351.62 82.32 352.06 81.94C352.78 81.34 353.44 81.04 354.04 81.04C354.64 81.04 355.09 81.24 355.39 81.64C355.73 82 355.9 82.49 355.9 83.11ZM367.971 83.35C367.971 83.75 367.811 84.14 367.491 84.52C367.171 84.9 366.621 85.39 365.841 85.99C365.701 85.19 365.261 84.5 364.521 83.92C363.781 83.28 362.991 82.96 362.151 82.96C361.351 82.96 360.711 83.44 360.231 84.4C359.851 85.12 359.661 86.14 359.661 87.46C359.661 88.66 359.991 89.74 360.651 90.7C361.431 91.74 362.321 92.26 363.321 92.26C364.341 92.26 365.161 92.11 365.781 91.81L366.501 91.42L367.341 90.85C366.461 92.09 365.641 92.94 364.881 93.4C364.141 93.88 363.001 94.12 361.461 94.12C359.881 94.12 358.771 93.67 358.131 92.77C357.471 91.87 357.141 90.53 357.141 88.75C357.141 86.55 357.781 84.72 359.061 83.26C360.361 81.82 361.741 81.1 363.201 81.1C364.661 81.1 365.821 81.35 366.681 81.85C367.541 82.35 367.971 82.85 367.971 83.35ZM381.277 91.81C380.997 92.39 380.577 92.92 380.017 93.4C379.457 93.88 378.847 94.12 378.187 94.12C377.567 94.12 377.087 93.91 376.747 93.49C376.487 93.09 376.357 90.4 376.357 85.42C376.357 84.96 376.327 84.66 376.267 84.52C376.127 84.26 375.817 84.13 375.337 84.13C374.877 84.13 374.257 84.61 373.477 85.57C372.697 86.53 372.307 88.4 372.307 91.18C372.307 91.54 372.237 91.9 372.097 92.26C371.957 92.58 371.747 92.91 371.467 93.25C371.187 93.51 370.867 93.72 370.507 93.88C370.327 93.96 370.157 94.02 369.997 94.06C369.797 94.1 369.607 94.12 369.427 94.12V79.18C369.427 77.82 369.807 76.61 370.567 75.55C371.307 74.51 373.237 73.99 376.357 73.99C376.097 74.49 375.787 74.89 375.427 75.19C375.047 75.51 374.587 75.72 374.047 75.82L373.237 75.88L372.577 76C372.397 76.06 372.307 79.42 372.307 86.08L373.657 84.07C374.357 83.15 374.937 82.5 375.397 82.12C376.077 81.56 376.787 81.22 377.527 81.1C378.207 81.1 378.697 81.39 378.997 81.97C379.137 82.31 379.207 85.06 379.207 90.22V92.32C379.247 92.56 379.357 92.68 379.537 92.68C379.837 92.68 380.217 92.52 380.677 92.2L381.277 91.81Z" fill="#FFF8EF"/>
<path d="M403.094 30.7637C403.094 31.1407 402.799 33.6801 402.68 34.3265C402.241 36.7428 401.312 39.0436 399.907 41.206C399.399 41.9986 398.414 43.2144 396.544 45.3998C393.093 49.4167 391.054 53.018 389.975 56.9811C389.461 58.8741 389.291 60.2053 389.291 62.3138C389.291 67.3233 390.446 71.6711 392.629 74.8723C393.802 76.596 395.17 77.8965 397.197 79.22C399.129 80.4821 400.145 81.3131 401.018 82.3366C401.639 83.0599 402.015 83.6909 402.304 84.4681C402.661 85.4223 402.624 85.4454 402.147 84.5682C401.595 83.5601 400.741 82.4751 400.07 81.921C399.148 81.1746 397.448 80.1666 395.628 79.297C393.219 78.1427 391.6 76.7422 390.276 74.6568C388.827 72.3868 387.842 69.3933 387.315 65.6612C387.039 63.6835 386.914 61.7444 386.813 57.7121C386.794 56.9503 386.763 55.9037 386.744 55.3805L386.707 54.434L386.537 54.457L386.374 54.4801L386.355 63.7913C386.336 72.81 386.387 77.0577 386.537 78.6814C386.889 82.5905 387.616 85.3839 388.896 87.7617C389.53 88.9236 390.741 90.4319 391.644 91.1629C393.15 92.3865 394.944 93.1868 396.914 93.533C397.19 93.5792 397.611 93.6562 397.849 93.7023C399.976 94.1025 401.808 96.2033 402.617 99.189C402.912 100.266 403.232 102.913 403.439 105.922C403.615 108.508 403.59 108.308 403.753 108.308H403.897L403.947 106.63C404.029 103.891 404.01 93.8331 403.922 92.4172C403.602 87.3538 402.793 84.2835 401.199 81.9903C400.622 81.1669 400.183 80.7206 398.514 79.2585C396.532 77.5194 395.948 76.9269 395.402 76.1266C394.185 74.3336 393.702 72.9793 393.639 71.1709C393.564 69.0932 394.185 67.131 395.578 65.0994C396.256 64.0991 396.544 63.7605 397.667 62.5985C398.219 62.0291 398.909 61.2826 399.198 60.9441C400.196 59.7744 401.212 58.1353 401.808 56.7271L402.505 55.12H406.095L406.106 104.987L406.992 103.879V55.12H420.454L421.351 54.0118H406.992V35.5142L406.106 36.5682L406.095 54.0118C404.216 54.0118 402.754 54.0118 402.954 54.0118C403.18 53.2808 403.308 51.0173 403.308 51.0173C403.308 51.0173 403.54 48.4856 403.496 39.5284L403.452 30.7406H403.27C403.176 30.7406 403.094 30.7483 403.094 30.7637Z" fill="#FFF8EF"/>
<path d="M406.091 36.5754L407 35.5142V54.0116H421.375L420.545 55.205L407 55.1166V103.893L406.091 105V36.5754Z" fill="#FFF8EF"/>
<path d="M392.5 55.2052L391.5 54.0116H406.091V55.1166L392.5 55.2052Z" fill="#FFF8EF"/>
<line x1="70" y1="47.8349" x2="136" y2="47.8349" stroke="#FFF8EF" stroke-width="4"/>
<line x1="78" y1="55.4953" x2="140" y2="55.4953" stroke="#FFF8EF" stroke-width="3"/>
<line y1="-2" x2="66" y2="-2" transform="matrix(-1 7.94752e-08 9.61651e-08 1 388 49.8349)" stroke="#FFF8EF" stroke-width="4"/>
<line y1="-1.5" x2="62" y2="-1.5" transform="matrix(-1 8.51521e-08 1.03034e-07 1 380 56.9953)" stroke="#FFF8EF" stroke-width="3"/>
<defs>
<filter id="filter0_d_126_289" x="11.4424" y="10" width="473.255" height="130.632" filterUnits="userSpaceOnUse" color-interpolation-filters="sRGB">
<feFlood flood-opacity="0" result="BackgroundImageFix"/>
<feColorMatrix in="SourceAlpha" type="matrix" values="0 0 0 0 0 0 0 0 0 0 0 0 0 0 0 0 0 0 127 0" result="hardAlpha"/>
<feOffset dy="4"/>
<feGaussianBlur stdDeviation="2"/>
<feComposite in2="hardAlpha" operator="out"/>
<feColorMatrix type="matrix" values="0 0 0 0 0 0 0 0 0 0 0 0 0 0 0 0 0 0 0.25 0"/>
<feBlend mode="normal" in2="BackgroundImageFix" result="effect1_dropShadow_126_289"/>
<feBlend mode="normal" in="SourceGraphic" in2="effect1_dropShadow_126_289" result="shape"/>
</filter>
</defs>
</svg>
